<svg xmlns="http://www.w3.org/2000/svg" viewBox="0 0 294 88.64"><defs><style>.cls-1{fill:#444;}</style></defs><g id="レイヤー_2" data-name="レイヤー 2"><g id="Layer_1" data-name="Layer 1"><path class="cls-1" d="M44.17,0A44.31,44.31,0,0,0,0,40.76l23.75,9.82a12.55,12.55,0,0,1,7.06-2.18l.7,0L42.08,33.11c0-.07,0-.14,0-.21A16.72,16.72,0,1,1,58.79,49.61h-.38L43.34,60.35c0,.2,0,.4,0,.6a12.55,12.55,0,0,1-24.85,2.47l-17-7A44.31,44.31,0,1,0,44.17,0Z"/><path class="cls-1" d="M27.77,67.25,22.33,65a9.31,9.31,0,0,0,4.85,4.61,9.42,9.42,0,0,0,12.31-5.07,9.4,9.4,0,0,0-12-12.41l5.63,2.32a6.93,6.93,0,0,1-5.34,12.8Z"/><path class="cls-1" d="M69.93,32.9A11.14,11.14,0,1,0,58.79,44,11.15,11.15,0,0,0,69.93,32.9Zm-19.49,0a8.37,8.37,0,1,1,8.37,8.36A8.37,8.37,0,0,1,50.44,32.88Z"/><path class="cls-1" d="M135.81,30.32l-3,5.22a14.87,14.87,0,0,0-8.1-2.56c-3.09,0-5,1.28-5,3.58,0,2.78,3.4,3.43,8.45,5.24,5.43,1.92,8.55,4.18,8.55,9.16,0,6.8-5.35,10.62-13,10.62A23.6,23.6,0,0,1,112,58.5l2.16-5.79a20.46,20.46,0,0,0,9.22,2.38c4.06,0,6-1.5,6-3.71,0-2.53-2.94-3.3-7.69-4.87-5.42-1.81-9.17-4.18-9.17-9.68,0-6.21,5-9.78,12.13-9.78A19.07,19.07,0,0,1,135.81,30.32Z"/><path class="cls-1" d="M159,33.62V61h-7V33.62H141.89v-6h27.26v6Z"/><path class="cls-1" d="M183.88,33.6v7.53h13.39v6H183.88V55h15.53v6H176.9V27.63h22.51v6Z"/><path class="cls-1" d="M215,54.53,212.81,61h-7.33L218,27.63h7L237.9,61h-7.57l-2.26-6.48Zm6.45-18.94L216.91,49h9.22Z"/><path class="cls-1" d="M273.79,40.53,264.65,60h-3.94l-9-19.34V61H245V27.63h6.68l11.22,24.1,10.82-24.1h6.74V61h-6.69Z"/><path class="cls-1" d="M294,31.84a4.63,4.63,0,1,1-4.62-4.65A4.5,4.5,0,0,1,294,31.84Zm-8.47,0a3.85,3.85,0,1,0,7.69,0,3.85,3.85,0,1,0-7.69,0Zm3.92-2.38c1.19,0,1.6.64,1.6,1.32a1.36,1.36,0,0,1-.83,1.26l1.07,2h-.87l-.91-1.78h-.93v1.78h-.73V29.46Zm-.87,2.14h.82a.76.76,0,0,0,.84-.75c0-.42-.22-.69-.84-.69h-.82Z"/></g></g></svg>