<svg viewBox="0 0 38 29.34" xmlns="http://www.w3.org/2000/svg"><path d="m3.63 25.21c-2.77-.76-3.63-1.48-3.63-2.55s1.44-2 2.87-2.48l9.73-3.48v3.62l-5.78 2.05c-.57.22-1.76.79-.75 1.26s3 .18 4.13-.22l2.4-.82v3.12a22.23 22.23 0 0 1 -8.97-.5zm19.28-8.87v-9.16c0-1.08-.22-2.08-1.22-2.33-.76-.29-1.26.46-1.26 1.54v23l-6.18-1.99v-27.4a69.55 69.55 0 0 1 8.55 2.33c5.21 1.8 7 4.06 7 9.09s-3.05 6.78-6.89 4.92zm-.86 8.83 9.51-3.37c.5-.18 1-.51 1-.87s-.79-.46-.93-.5a9.13 9.13 0 0 0 -1.91 0 6.34 6.34 0 0 0 -1.4.29l-6.24 2.23v-3.78a20.81 20.81 0 0 1 12.71-.1c3.84 1.18 4.63 3.48.39 5l-13.1 4.7z" fill="#444"/></svg>