<?xml version="1.0" encoding="utf-8"?>
<!-- Generator: Adobe Illustrator 25.3.1, SVG Export Plug-In . SVG Version: 6.00 Build 0)  -->
<svg version="1.1" id="レイヤー_1" xmlns="http://www.w3.org/2000/svg" xmlns:xlink="http://www.w3.org/1999/xlink" x="0px"
	 y="0px" width="60px" height="60px" viewBox="0 0 60 60" style="enable-background:new 0 0 60 60;" xml:space="preserve">
<style type="text/css">
	.st0{fill:url(#SVGID_1_);}
</style>
<g>
	<g>
		<linearGradient id="SVGID_1_" gradientUnits="userSpaceOnUse" x1="13.0295" y1="46.9706" x2="46.9706" y2="13.0295">
			<stop  offset="0" style="stop-color:#0E856D"/>
			<stop  offset="1" style="stop-color:#58CE92"/>
		</linearGradient>
		<path class="st0" d="M0,30l9,5l21-5L9,25L0,30z M13,47l7.9-2.3L30,30l-14.7,9.1L13,47z M30,60l5-9l-5-21l-5,21L30,60z M47,47
			l-2.3-7.9L30,30l9.1,14.7L47,47z M13,13l2.3,7.9L30,30l-9.1-14.7L13,13z M47,13l-7.9,2.3L30,30l14.7-9.1L47,13z M60,30l-9-5l-21,5
			l21,5L60,30z M30,0l-5,9l5,21l5-21L30,0z"/>
	</g>
</g>
</svg>
