<svg xmlns="http://www.w3.org/2000/svg" viewBox="0 0 118 25.22"><defs><style>.cls-1{fill:#444;}</style></defs><g id="レイヤー_2" data-name="レイヤー 2"><g id="レイヤー_1-2" data-name="レイヤー 1"><path class="cls-1" d="M37.13,6.8c0,3.82-2.35,6.76-7.13,6.76H8.75c-1.95,0-3.31,1.66-3.31,4V25a.2.2,0,0,1-.18.19H.18A.2.2,0,0,1,0,25V17.61c0-3.86,2.61-6.73,6-6.73h22.2c2.35,0,3.49-1.73,3.49-4.08s-1.14-4.12-3.49-4.12H.18A.16.16,0,0,1,0,2.54V.18A.17.17,0,0,1,.18,0H30C34.78,0,37.13,2.94,37.13,6.8ZM78.7,2.68H64c-2.35,0-3.49,1.73-3.49,4.08V18.45c0,3.83-2.36,6.77-7.13,6.77H36.1a.18.18,0,0,1-.19-.19V22.68a.18.18,0,0,1,.19-.15H51.61c2.35,0,3.49-1.72,3.49-4.08V6.8c0-3.86,2.32-6.8,7.13-6.8H78.7a.19.19,0,0,1,.19.18V2.5A.18.18,0,0,1,78.7,2.68ZM118,20v2.35a.19.19,0,0,1-.18.18h-5a.18.18,0,0,0-.18.19V25a.18.18,0,0,1-.19.19h-5.07a.18.18,0,0,1-.18-.19V22.64c0-.07-.08-.11-.15-.11H78.78c-1.33,0-2-.36-2.21-.92s.11-1.43,1.29-2.16L108.26.77c2.53-1.54,4.34-.7,4.34,1.91v17a.17.17,0,0,0,.18.18h5A.19.19,0,0,1,118,20ZM107.16,5.15c0-.33-.26-.33-.45-.22L83.19,19.41c-.15.11-.19.18-.19.29s.15.11.34.11H107a.17.17,0,0,0,.15-.18Z"/></g></g></svg>