<svg xmlns="http://www.w3.org/2000/svg" width="2164" height="16" viewBox="0 0 2164 16"><defs><linearGradient id="a" x1=".65" x2="12.67" y1=".71" y2="6.06" gradientUnits="userSpaceOnUse"><stop stop-color="#3367ff" offset="0"/><stop stop-color="#8be250" offset=".71"/><stop stop-color="#dbf141" offset="1"/></linearGradient><linearGradient id="b" x1="2.15" x2="2.99" y1=".98" y2="2.57" gradientTransform="matrix(.73825 .61946 -.57392 .68397 1.84 -.98)" gradientUnits="userSpaceOnUse"><stop stop-color="#ccccf4" offset="0"/><stop stop-color="#9ac2ff" offset="1"/></linearGradient><radialGradient id="c" cx="113.5" cy="35.63" r="47.61" gradientTransform="translate(-1.84 -.35) scale(.08452)" gradientUnits="userSpaceOnUse"><stop stop-color="#fff" offset=".04"/><stop stop-color="#6E93E1" offset=".23"/><stop stop-color="#6867cb" offset="1"/></radialGradient><linearGradient id="d" x2="1" gradientTransform="scale(179.49 -179.49) rotate(-51 -2.04 -2.71)" gradientUnits="userSpaceOnUse"><stop stop-color="#ff0" offset="0"/><stop stop-color="#9dff00" offset=".5"/><stop stop-color="#458c41" offset="1"/></linearGradient><linearGradient id="e" x2="1" gradientTransform="scale(247.4 -247.4) rotate(56 3.22 -.6)" gradientUnits="userSpaceOnUse"><stop stop-color="#4a7d62" offset="0"/><stop offset="1"/></linearGradient><linearGradient id="f" x2="1" gradientTransform="scale(266.72 -266.72) rotate(-34 -1.53 -1.47)" gradientUnits="userSpaceOnUse"><stop stop-color="#ff0" offset="0"/><stop stop-color="#9dff00" offset=".42"/><stop stop-color="#5c5c5c" offset="1"/></linearGradient><linearGradient id="g" x2="1" gradientTransform="scale(358.07 -358.07) rotate(-60 -.29 -.65)" gradientUnits="userSpaceOnUse"><stop stop-color="#4a7d62" offset="0"/><stop stop-color="#182920" offset="1"/></linearGradient><linearGradient id="h" x2="1" gradientTransform="scale(-171.77 171.77) rotate(44 -5.21 -2.83)" gradientUnits="userSpaceOnUse"><stop stop-color="#ff0" offset="0"/><stop stop-color="#9dff00" offset=".48"/><stop stop-color="#4a4a4a" offset="1"/></linearGradient><linearGradient id="i" x2="1" gradientTransform="scale(161.685 -161.685) rotate(-83 -.25 -3.52)" gradientUnits="userSpaceOnUse"><stop offset="0"/><stop stop-color="#45755c" offset=".87"/><stop stop-color="#45755c" offset="1"/></linearGradient><linearGradient id="j" x2="1" gradientTransform="scale(135.836 -135.836) rotate(-65 .22 -4.28)" gradientUnits="userSpaceOnUse"><stop stop-color="#ff0" offset="0"/><stop stop-color="#aeff00" offset=".42"/><stop stop-color="#575757" offset="1"/></linearGradient><linearGradient id="k" x2="1" gradientTransform="scale(-320.164 320.164) rotate(80 -1.36 -.84)" gradientUnits="userSpaceOnUse"><stop stop-color="#4a7d62" offset="0"/><stop offset=".83"/><stop offset="1"/></linearGradient><radialGradient id="l" cx="0" cy="0" r="1" gradientTransform="matrix(207.43 -21.51 -19.788 -190.88 415.48 501.29)" gradientUnits="userSpaceOnUse"><stop stop-color="#fff" offset="0"/><stop offset=".96"/><stop offset="1"/></radialGradient><radialGradient id="m" cx="0" cy="0" r="1" gradientTransform="matrix(-59.414 -151.8 -183.86 71.965 430.59 518.58)" gradientUnits="userSpaceOnUse"><stop stop-color="#fff" offset="0"/><stop offset=".96"/><stop offset="1"/></radialGradient><linearGradient id="n" gradientUnits="userSpaceOnUse" x1="10.08" y1="9.83" x2="11.87" y2="8.38"><stop offset="0" stop-color="#e6edae"/><stop offset="1" stop-color="#359644"/></linearGradient><linearGradient id="o" gradientUnits="userSpaceOnUse" gradientTransform="matrix(.41805 0 0 .41527 -1.2 .47)" x1="17.96" y1="19.43" x2="15" y2="17.36"><stop stop-color="#e5edae" offset="0"/><stop stop-color="#249b47" offset="1"/></linearGradient><linearGradient id="p" gradientUnits="userSpaceOnUse" gradientTransform="matrix(-.41668 0 0 .41565 17.22 .47)" x1="20.3" y1="15.11" x2="22.04" y2="7.83"><stop stop-color="#e6eead" offset="0"/><stop stop-color="#46873f" offset="1"/></linearGradient><linearGradient id="q" gradientUnits="userSpaceOnUse" gradientTransform="matrix(.41805 0 0 .41527 -1.24 .47)" x1="21.34" y1="15.45" x2="22.08" y2="7.5"><stop stop-color="#e6edae" offset="0"/><stop stop-color="#459743" offset="1"/></linearGradient><radialGradient id="r" gradientUnits="userSpaceOnUse" gradientTransform="matrix(0 1.8458 -1.5756 0 41.66 -29.48)" cx="23.69" cy="12.77" r="14.35"><stop stop-color="#fff" offset="0"/><stop stop-color="#fff" stop-opacity="0" offset="1"/></radialGradient><radialGradient id="s" gradientUnits="userSpaceOnUse" gradientTransform="matrix(0 1.1525 -.98381 0 34.1 -13.06)" cx="23.69" cy="12.77" r="14.35"><stop stop-color="#fff" offset="0"/><stop stop-color="#666" stop-opacity="0" offset="1"/></radialGradient></defs><g transform="translate(0)"><g fill="none" stroke="#000" stroke-linecap="round" stroke-width=".265" transform="matrix(3.77983 0 0 3.77983 .009 0)"><circle cx="2.114" cy="2.913" r=".923"/><path d="M2.117 1.875c0-.552.529-.817.529-1.081 0-.53-1.059-.53-1.059 0"/></g></g><g transform="translate(26)"><g fill="none" stroke="#000" stroke-linecap="round" stroke-width=".265" transform="matrix(3.77953 0 0 3.77953 -.51 -.017)"><circle cx="1.987" cy="1.852" r=".923"/><path d="M2.608 1.152 3.44.265M3.44 1.058V.265M2.646.265l.791-.008M1.987 3.985V2.904M1.458 3.532h1.058"/></g></g><g transform="translate(52)"><g fill="none" stroke="#000" stroke-linecap="round" stroke-width=".265" transform="matrix(3.77953 0 0 3.77953 0 .051)"><circle cx="2.117" cy="1.453" r=".923"/><path d="M2.117 3.677V2.381M1.587 3.175h1.059"/></g></g><g transform="translate(78)"><g fill="none" stroke="#000" stroke-linecap="round" stroke-width=".265" transform="matrix(3.77953 0 0 3.77953 -.095 .406)"><circle cx="1.679" cy="2.512" r=".923"/><path d="M2.3 1.811 3.527.583M3.528 1.567V.583M2.566.584h.962"/></g></g><g transform="translate(104)"><g fill="none" stroke="#000" stroke-linecap="round" stroke-width=".265" transform="matrix(3.77953 0 0 3.77953 -.51 -.03)"><circle cx="1.987" cy="1.852" r=".923"/><path d="M2.608 1.152 3.44.265M1.987 3.985V2.904"/></g></g><g transform="translate(130)"><g fill="none" stroke="#000" stroke-linecap="round" stroke-width=".265" transform="translate(.01 -.25) scale(3.77953)"><circle cx="2.114" cy="2.913" r=".923"/><path d="M2.117 1.875v-.817M1.587 1.323 2.646.529M2.646 1.323 1.587.529"/></g></g><g transform="translate(156)"><g fill="none" stroke="#000" stroke-linecap="round" stroke-width=".265" transform="matrix(3.77953 0 0 3.77953 0 -.01)"><circle cx="2.117" cy="2.119" r="1.325"/><path d="M2.081 2.858c0-.552.53-.816.53-1.081 0-.53-1.059-.53-1.059 0"/></g></g><g transform="translate(182)"><circle cx="8" cy="8" r="7.41" fill="none" stroke="#e44" stroke-width="1.17"/><path fill="#e44" d="M9.96 4.55c1.16-.45 1.82.76 1.44 1.58a64 64 0 0 1-2.33 2.35c-.36.2-.84.21-1.16.03-.6-.4-1.4.36-.79.84.92.66 2 .5 2.82-.1.15-.14 2.15-2.16 2.24-2.28.8-1.03.53-2.53-.38-3.24-.85-.5-1.58-.6-2.36-.19-.88.63-1.03.88-1.87 1.73.46.02.84.12 1.3.28l1.09-1zm-3.92 6.9c-1.16.45-1.82-.76-1.44-1.58a64 64 0 0 1 2.33-2.35c.36-.2.84-.21 1.16-.03.6.4 1.4-.36.79-.84-.92-.66-2-.5-2.82.1-.15.14-2.15 2.16-2.24 2.28a2.38 2.38 0 0 0 .38 3.24c.85.5 1.58.6 2.36.19.88-.63 1.03-.88 1.87-1.73a4.38 4.38 0 0 1-1.3-.28l-1.09 1z"/></g><g transform="translate(208)"><g fill="#e44"><path d="M8 .01a8 8 0 1 0 .02 16A8 8 0 0 0 8 0zM8 15A7 7 0 1 1 8.01.99a7 7 0 0 1-.01 14z"/><path d="M8.13 10.78c-.47-.1-.95.38-.85.85.06.3.32.55.62.6.2 0 .42-.04.57-.18.24-.2.35-.54.21-.82a.76.76 0 0 0-.55-.45Zm2.22-1.31a3.22 3.22 0 0 0-3.08-1 3.21 3.21 0 0 0-1.64 1.02.56.56 0 0 0 .01.64c.14.18.36.29.58.26.32-.06.48-.39.75-.53a2.02 2.02 0 0 1 1.83-.12c.2.11.4.2.55.38.17.2.45.35.7.24.3-.1.51-.46.37-.76l-.07-.13Z"/><path d="M11.85 7.7c-.22-.2-.43-.42-.68-.58a6.18 6.18 0 0 0-1.47-.77c-.32-.08-.64-.2-.98-.2-.33-.08-.67-.04-1-.05-.35.01-.7.05-1.03.14A5.13 5.13 0 0 0 4.14 7.7c-.2.23-.16.58.05.78.2.21.55.24.78.04.4-.35.82-.7 1.33-.9.5-.22 1.05-.36 1.6-.35a3.8 3.8 0 0 1 1.61.26c.47.17.92.42 1.3.76.19.17.41.4.7.36.3-.07.56-.36.5-.69 0-.11-.08-.2-.16-.26Z"/><path d="M13.46 6.12c-.2-.35-.58-.56-.88-.82a7.78 7.78 0 0 0-9.9.64c-.34.3-.2.88.23 1 .41.13.7-.3 1-.52a6.56 6.56 0 0 1 8.57.34c.27.32.8.27.99-.11.1-.16.07-.37 0-.53Z"/></g></g><g transform="translate(234)"><g fill="none" stroke="#e44"><path stroke-linejoin="bevel" stroke-width=".87" d="M5.97 7.78q.45.1.7.48.26.37.26.9 0 .84-.48 1.3-.47.44-1.52.44-.35 0-.72-.1-.38-.12-.78-.35v-.4q.32.27.7.4.37.15.76.15.8 0 1.24-.37.42-.36.42-1.06 0-.57-.4-.9-.4-.31-1.1-.31H4.4v-.32h.68q.65 0 1-.26.34-.26.34-.75 0-.59-.35-.9-.36-.32-1.02-.32-.3 0-.66.1-.36.12-.79.35v-.4q.43-.18.8-.26.39-.1.72-.1.86 0 1.27.39.41.39.41 1.06 0 .44-.22.78-.2.33-.61.45zM8.4 5.2h.43l1.57 2.35 1.57-2.35h.44l-1.8 2.67 1.95 2.93h-.44l-1.75-2.64-1.76 2.64h-.43l1.98-2.96z"/><circle cx="8" cy="8" r="7.36" stroke-width="1.19"/></g></g><g transform="translate(260)"><circle cx="8" cy="8" r="7.41" fill="none" stroke="#e44" stroke-width="1.17"/><circle cx="9.54" cy="6.39" r=".49" fill="#e44"/><path fill="#e44" d="M11.82 5.03a2.66 2.66 0 0 0-4.38-.12A2.3 2.3 0 0 0 7 6.88L3.79 10.1v2.1h3.15v-1.05H8V10.1h1.05V9c2.48.55 3.9-1.86 2.78-3.96zM8.86 8.12l-.62.62v.43l-.12.12h-.93v.93l-.12.12h-.93v.93l-.12.12H4.78l-.12-.12v-.87l3.27-3.27A1.8 1.8 0 0 1 9.6 4.6c.99 0 1.85.8 1.85 1.85-.12 1.67-1.3 2.22-2.6 1.67z"/></g><g transform="translate(286)"><circle cx="8" cy="8" r="7.41" fill="none" stroke="#e44" stroke-width="1.17"/><path fill="#e44" d="M13.3 6.54c-.22-.32-.67-.7-1.05-.87l-.15-.07-.02-.11a3 3 0 0 0-.06-.4c-.2-1.15-.84-2-1.78-2.38-.71-.28-1.5-.3-2.2-.07-.36.12-.8.4-1.08.67l-.12.1-.16-.07a2.24 2.24 0 0 0-2.53.41c-.21.2-.34.37-.47.63a2.16 2.16 0 0 0-.21 1.4c0 .07 0 .08-.1.14A2.54 2.54 0 0 0 2.52 9c.2.44.56.81 1 1.04.23.11.64.24.95.27.1.02.24.01.46.02h.43V9.24h-.42c-.5 0-.65-.02-.9-.15-.31-.14-.5-.35-.6-.66a1.9 1.9 0 0 1 0-.82c.11-.43.43-.8.87-1l.13-.06-.03-.08A1.74 1.74 0 0 1 5.6 4.24c.22-.06.66-.06.89 0 .2.06.45.18.61.32l.14.11.1-.15a1.92 1.92 0 0 1 2.08-.93c1.69.34 1.71 2.73 1.71 2.73s1.4.13 1.47 1.43c.05.99-.4 1.23-.79 1.4-.19.07-.38.1-.8.1h-.37v1.07h.47c.5-.02.69-.05 1.03-.17a2.3 2.3 0 0 0 1.55-2.08c.02-.6-.1-1.05-.4-1.52zM8.53 7.8H7.49v2.99H5.97l2.09 2.73 2-2.73h-1.5l-.01-3z"/></g><g transform="translate(312)"><g fill="none" stroke="#e44" stroke-width=".31"><circle cx="8" cy="8" r="1.36"/><circle cx="8" cy="8" r="2.29"/><circle cx="8" cy="8" r="7.41" stroke-width="1.17"/></g><path fill="#e44" d="m5.81 9.14-4.35 1.54 1.88 2.62 3.01-3.47m6.3-7.11L9.58 6.2l.56.74 4.4-1.57-1.9-2.65zm-3.37 3.3 2.42-3.89-.8-.44-1.85 4.2M6.7 10.03l-2.44 3.84.78.44 1.9-4.14"/></g><g transform="translate(338)"><circle cx="8" cy="8" r="7.6" fill="none" stroke="#0c0" stroke-width=".81"/><path fill="#0c0" d="M10.55 6.89V4.82c0-1.19-1.23-2.26-2-2.35a2.55 2.55 0 0 0-3 1.85c-.06.26-.05.43-.07.66h.95c.1 0 .12-.04.13-.13.04-.43.15-.72.4-.98.89-.82 2.33-.28 2.57.77.2.84.14 1.24.14 2.25l-4.61.03c-.69 0-1.1.56-1.1 1.1l.44 4.6c.07.55.3.97.78.96h5.46c.6 0 .8-.38.91-.97l.46-4.6c.1-.59-.15-1.05-.72-1.09l-.74-.03zm-.06 5.6H5.5l-.4-4.47h5.78l-.4 4.48z"/></g><g transform="translate(364)"><circle cx="8" cy="8" r="7.41" fill="none" stroke="#e44" stroke-width="1.17"/><path fill="#e44" d="m6.64 7.4.75-.77 2.05 2-.8.76-2-1.99zm1.97 3.3-3.28 1.1-1.12-1.06 1.12-3.3L8.6 10.7zM7.45 5.34l3.22-1.09 1.07 1.08-1.08 3.23c-.03 0-3.23-3.2-3.21-3.22zm-3.84 8.11.97-.93.55.44 4.26-1.43.43.37.73-.72-.84-.86.62-.63.85.85.72-.74-.38-.43 1.41-4.29-.45-.48.96-.99-1.07-1.06-.98.98-.5-.47-4.27 1.42-.43-.38-.72.72.87.88-.62.63-.87-.87-.74.75.36.4-1.42 4.37.45.47-.93.96 1.04 1.04z"/></g><g transform="translate(390)"><g fill="none" stroke="#e44"><circle cx="8" cy="8" r="7.41" stroke-width="1.17"/><path stroke-width=".86" d="M7.97 4.19c-2.15-1.26-2.6.72-4.05.62m4.04-.62c2.15-1.25 2.68.73 4.12.63m-8.16-.44v7.85m4.04-8.14v7.05m-.21.05c2.07-1.25 2.64.7 4.04.6m.23-7.41v7.85M8.2 11.19c-2.07-1.25-2.64.7-4.04.6"/></g></g><g transform="translate(416)"><g opacity="0.4" fill="#fff"><path d="M8.25 6.75v-3h-1.5v3h-3v1.5h3v3h1.5v-3h3v-1.5Z"/><path d="M7.5 0a7.5 7.5 0 1 0 0 15 7.5 7.5 0 0 0 0-15zm0 13.64a6.14 6.14 0 1 1 0-12.28 6.14 6.14 0 0 1 0 12.28z"/></g></g><g transform="translate(441)"><g opacity="0.9" fill="#00b9f9"><path d="M7.5 0C3.37 0 0 3.37 0 7.5S3.37 15 7.5 15 15 11.62 15 7.5 11.62 0 7.5 0zm0 13.65c-3.38 0-6.15-2.77-6.15-6.15S4.12 1.35 7.5 1.35s6.15 2.78 6.15 6.15-2.78 6.15-6.15 6.15z"/><path d="M5.25 3.07v8.85l6.6-4.42-6.6-4.43zm1.5 2.63 2.7 1.8-2.7 1.72V5.7z"/></g></g><g transform="translate(466)"><g fill="#00cf00"><path d="m10.31 4.75-3.63 3.7-1.86-1.87-1 1 2.94 2.92 4.7-4.57z"/><path d="M7.5 0a7.5 7.5 0 1 0 0 15 7.5 7.5 0 0 0 0-15zm0 13.64a6.14 6.14 0 1 1 0-12.28 6.14 6.14 0 0 1 0 12.28z"/></g></g><g transform="translate(491)"><g fill="#ff7819" opacity=".9"><path d="M7.5 0C3.37 0 0 3.37 0 7.5S3.37 15 7.5 15 15 11.62 15 7.5 11.62 0 7.5 0zm0 13.65c-3.38 0-6.15-2.77-6.15-6.15S4.12 1.35 7.5 1.35s6.15 2.78 6.15 6.15-2.78 6.15-6.15 6.15z"/><path d="M5.25 4.5h1.5v6h-1.5zm3 0h1.5v6h-1.5z"/></g></g><g transform="translate(516)"><g fill="#f80000" opacity=".9"><path d="M7.5 0a7.5 7.5 0 1 0 0 15 7.5 7.5 0 0 0 0-15zm0 13.64a6.14 6.14 0 1 1 0-12.28 6.14 6.14 0 0 1 0 12.28z"/><path d="M9 4.5H4.5v6h6v-6H9zM9 9H6V6h3v3z"/></g></g><g transform="translate(541)"><g fill="#ffe700" opacity=".9"><path d="M8.74 8.47A1.25 1.25 0 0 1 7.5 9.72a1.25 1.25 0 0 1-1.25-1.25A1.25 1.25 0 0 1 7.5 7.22a1.25 1.25 0 0 1 1.25 1.25z"/><path d="m15 5.83-5-1.02L7.5.35 5 4.81 0 5.82l3.46 3.75-.6 5.08 4.63-1.96 4.64 1.96-.59-5.07L15 5.83zm-7.5 5.7-3.38 1.43.44-3.72-2.51-2.75 3.63-.73L7.5 2.53l1.82 3.24 3.63.72-2.51 2.72.44 3.77z"/></g></g><g transform="translate(566)"><g fill="#b60700"><path d="M11.57 1.8a3.4 3.4 0 0 0-2.9 1.67 3.4 3.4 0 0 0-2.9-1.66c-.43 0-.86.08-1.26.25l.85.87a3 3 0 0 1 .42-.05c.81.01 1.56.45 1.98 1.15l.91 1.51.92-1.51a2.32 2.32 0 0 1 1.98-1.15 2.42 2.42 0 0 1 2.35 2.48c0 1.04-.88 2.53-2.05 4.07l.76.77C13.9 8.57 15 6.76 15 5.36a3.5 3.5 0 0 0-3.43-3.55zm-.71 8.87a35.6 35.6 0 0 1-2.19 2.32C6.4 10.78 3.42 7.26 3.42 5.36c0-.6.22-1.2.62-1.65a1.9 1.9 0 0 0-.88-.64 3.6 3.6 0 0 0-.81 2.29c0 3.4 6.32 9.1 6.32 9.1s1.19-1.07 2.53-2.56c.21-.23-.27-1.32-.34-1.23z"/><path d="m0 .99.9-.9 13.9 13.92-.9.9z"/></g></g><g transform="translate(591)"><g fill="#fff" opacity=".9"><path d="M6.75 10.5h1.5V12h-1.5z"/><path d="M7.5 0a7.5 7.5 0 1 0 0 15 7.5 7.5 0 0 0 0-15zm0 13.64a6.14 6.14 0 1 1 0-12.28 6.14 6.14 0 0 1 0 12.28z"/><path d="M10.42 5.29A3 3 0 0 0 4.5 6H6a1.5 1.5 0 0 1 3 .25A1.56 1.56 0 0 1 7.42 7.5c-.37 0-.67.3-.67.67v1.58h1.5v-.86a3 3 0 0 0 2.17-3.6z"/></g></g><g transform="translate(616)"><path d="m11.44 3.32 1.08-1.99c.07-.13.04-.23-.08-.3-.13-.06-.23-.03-.3.1l-1.09 2a7.43 7.43 0 0 0-3.04-.64 7.3 7.3 0 0 0-3.04.63l-1.1-2C3.8 1 3.7.97 3.58 1.03c-.12.07-.14.17-.07.3l1.07 1.99a6.64 6.64 0 0 0-2.6 2.33C1.32 6.65 1 7.73 1 8.92h14c0-1.19-.32-2.27-.97-3.27-.64-1-1.5-1.77-2.59-2.33zM5.23 6.21a.57.57 0 0 1-.42.17.54.54 0 0 1-.4-.17.58.58 0 0 1-.17-.42c0-.16.05-.3.16-.41a.54.54 0 0 1 .41-.18c.16 0 .3.06.42.18.12.11.17.25.17.41 0 .16-.05.3-.17.42zm6.38 0a.54.54 0 0 1-.4.17.57.57 0 0 1-.43-.17.57.57 0 0 1-.17-.42c0-.16.06-.3.17-.41a.57.57 0 0 1 .42-.18c.16 0 .3.06.4.18.12.11.18.25.18.41a.6.6 0 0 1-.17.42zM1 15h14V9.46H1z" fill="#839e2e"/></g><g transform="translate(642)"><g fill="#00b2ff"><path d="m1.68 4.59-.02.01A22.1 22.1 0 0 0 .08 7.13l-.04.09-.02.03a.23.23 0 0 0 .03.25c.26.42 1.73.9 5 .9 2.46 0 5.05-.4 5.05-1.14 0-.72-2.56-1.14-5.04-1.14-.82 0-1.64.11-1.87.15a61.54 61.54 0 0 1 1.16-1.66l-.02-.02zm.96 2.67c0-.15.92-.37 2.42-.37s2.42.22 2.42.37-.92.37-2.42.37-2.42-.22-2.42-.37z"/><path d="M3.54 10.99s12.2.5 12.46-3.82c.2-3.5-8.45-3.16-8.46-3.16-.01 0-.07 0-.07.05s.03.06.06.06c2.4 0 6.31.96 6.19 3.06-.1 1.7-3.16 3.7-10.17 3.7-.05 0-.07.02-.07.05 0 .03.01.05.06.06z"/></g></g><g transform="translate(668)"><path d="m0 3.15 3.29-.08c.64-.02 1.23.05 1.83.26v.12c-.52.45-.89.98-1.23 1.58l-2 .02.02 5.79 1.18.08 1.2-.01c.73-.01 1.4-1.19 1.46-1.83l.18-2.01C6 6.18 6.5 5.5 7.28 5.14c.49.83.7 1.76.7 2.73 0 3.07-1.86 5-4.8 4.9L0 12.64z" fill="#c00"/><path d="M9.71 3.04a4.3 4.3 0 0 0-1.35 1.58l-.33-.01c-1.16 0-2.22 1.04-2.36 2.2l-.3 2.54c-.04.36-.34.72-.57.98-.2.21-.42.25-.7.25h-.03a6.66 6.66 0 0 1-.55-2.63c0-2.88 1.58-5.17 4.52-5.17.58 0 1.13.11 1.67.26zm-3.59 9.54.95-.92.44-.63.72.01c.34.76.9 1.28 1.59 1.73-.5.17-1 .26-1.52.26-.76 0-1.47-.18-2.18-.45z" fill="#f0f"/><path d="m8.3 9.65 1.84.01c.2 1.2.97 1.53 2.12 1.53.73 0 1.8-.17 1.8-1.11 0-.5-.37-.75-.76-.96l.1-1.88c1.46.4 2.6.97 2.6 2.73 0 2.07-1.94 2.95-3.72 2.95-1.28 0-2.93-.38-3.61-1.61a2.88 2.88 0 0 1-.42-1.32l.02-.1zM15.68 6H13.8c-.15-.94-.92-1.4-1.83-1.4-.63 0-1.65.28-1.68 1.08-.01.04 0 .07.01.1l.37 1.1c.08.22.1.47.1.7 0 .28-.04.55-.08.83-1.32-.38-2.24-1.03-2.24-2.55 0-2.04 1.61-3 3.45-3 2.05 0 3.65.98 3.78 3.13z" fill="#cca300"/><path d="M12.28 4.97c.46.89.7 1.86.7 2.89 0 1.07-.26 2.08-.71 3.02l-.35.02c-.38 0-1.28-.27-1.28-.77 0-.09.01-.17.04-.25l.34-1.24c.07-.25.04-.54.04-.79 0-.96-.4-1.56-.43-2.22-.02-.47.79-.68 1.07-.68.2 0 .38 0 .58.02z" fill="#f0f"/></g><g transform="translate(694)"><path d="M9.74.98c.6.09 1.2.3 1.52.4.64.19 1.67.8 2.04 1.08.17.14.54.5.68.68l.56.8c.27.39.58.97.85 1.5.3.6.32.77.4 1.26l.2.88c.02.15.04.71-.3.79a.72.72 0 0 1-.76-.3c-.2-.3-.17-.73-.4-1.23-.17-.4-.24-.98-.52-1.4l-.22-.37c-.38-.59-.79-1.06-1.03-1.37-.2-.25-.6-.6-.97-.85a6.65 6.65 0 0 0-2.33-.82c-.46-.06-.76-.13-1.2-.16-.55-.04-.8-.09-1.51 0-.27.07-.7.1-1.07.24a9.4 9.4 0 0 0-2.74 1.76c-.46.49-.69.75-1 1.37-.14.3-.41.78-.52 1.12-.08.34-.22.97-.2 1.28.02.55-.03.66 0 1.11.01.4.14.69.2 1.02.05.23.27 1.02.4 1.2A4.36 4.36 0 0 0 4.2 13.3c.26.14 1.07.35 1.3.42.41.07.94.12 1.45.13.54 0 1.28-.06 1.73-.23.48-.18 1.04-.43 1.04-.42.22-.13.57-.33.67-.42.21-.13.33-.19.46-.31.17-.16.28-.25.42-.44l.3-.42c.13-.2.2-.42.32-.68.15-.4.12-.38.15-.8.03-.11 0-.52-.02-.59-.07-.37-.05-.7-.13-1.07-.12-.49-.21-.86-.36-1.33a3.73 3.73 0 0 0-.86-1.37 4.51 4.51 0 0 0-1.6-1.06c-.22-.08-.6-.16-.84-.2-.5-.06-.6-.03-1.08 0-.17.04-.56.12-.7.17-.42.15-.58.24-1 .5-.2.12-.36.2-.56.4-.16.15-.28.4-.41.56-.18.24-.38.57-.52.93-.14.35-.2.84-.17 1.16 0 .25.07.7.1.79l.1.46c.01.06.17.38.2.42.08.2.25.46.54.74.2.23.62.46.92.55.27.15.74.17 1 .17.12 0 .44-.03.6-.07.35-.08.4-.08.76-.23.31-.15.53-.2.74-.36 0 0 .3-.24.44-.4.07-.1.2-.53.18-.8-.02-.37.04-.58-.04-.88A3.2 3.2 0 0 0 9 7.75a2.02 2.02 0 0 0-.78-.6c-.2-.1-.65-.18-.85-.2-.36-.05-.67.12-.86.3-.16.2-.48.58-.35.98.11.35.25.74.8.71.36.08.79-.04.93.03.21.12.3.39.22.57-.06.36-.4.4-.76.43-.33.05-1.16-.1-1.34-.24-.12-.08-.3-.25-.44-.37-.1-.08-.2-.27-.28-.4a1.49 1.49 0 0 1-.15-.4c-.03-.14-.09-.38-.07-.63.02-.16.06-.23.1-.48.1-.27.2-.48.38-.72.23-.23.52-.51.8-.64.26-.13.7-.18 1.1-.16.32.03.7.07.95.16.43.15.56.18.91.4.3.2.6.53.77.81.36.74.56 1.55.41 2.65 0 .18-.07.36-.18.6-.1.23-.3.51-.58.72-.1.1-.29.23-.43.3-.2.13-.35.2-.56.3-.2.1-.41.2-.7.27-.3.13-.55.13-.94.19-.38.1-1.44.03-2.06-.25-.43-.18-.91-.5-1.28-.88-.2-.22-.4-.6-.46-.68-.29-.56-.34-1.08-.39-1.2-.06-.14-.1-.48-.14-.7a5.38 5.38 0 0 1 .25-2.04c.14-.28.23-.52.33-.65.18-.26.26-.42.41-.6.23-.27.4-.5.62-.66.57-.46 1.04-.7 1.69-1 .8-.33 1.03-.27 1.79-.25.34 0 .83.1 1.07.15.45.06.71.17 1.02.25.32.1.51.24.78.4.22.14.48.34.65.5.44.32.65.66.92 1.07.05.07.37.75.42.94l.14.52.15.76c.06.3.16.85.2 1.37.08.44-.04 1.35-.1 1.63a4.63 4.63 0 0 1-1.72 2.46c-.21.18-.4.28-.73.48-.44.27-.79.44-1.41.69-.26.08-.58.19-.93.26a9.8 9.8 0 0 1-2.12.03 11.2 11.2 0 0 1-1.96-.44c-.25-.1-.73-.3-.93-.4a6.8 6.8 0 0 1-2.04-1.84c-.1-.18-.44-.73-.51-.97-.2-.4-.34-.89-.42-1.1C.25 9.7.11 9.38.05 8.9c0-.11-.02-.38-.05-.53.04-.34-.01-.65.05-1.02.06-.3.14-.43.16-.71.02-.12.17-.48.2-.64.13-.26.16-.47.32-.77.24-.45.48-.98.85-1.44.1-.14.41-.48.51-.6.25-.24.39-.28.67-.52.02-.02.2-.23.4-.3.31-.24.59-.33.89-.56.6-.3.82-.4 1.42-.65.35-.12.83-.19 1-.26C6.8.87 7.14.77 7.5.8c.39 0 .78.02 1.17.06.27.01.61.03 1.08.13z" fill="#cf3311"/></g><g transform="translate(720)"><path fill="#ddd" d="M9.11 5.46S8.01 6.81 8.07 6.9c.08-.1-.4-1.46-.4-1.46l-.4-1.23h-5.9l-.2.89h1.91c1 0 1.6.4 1.43 1.13-.18.8-1.05 1.13-1.97 1.13h-.35l.45-1.93H1.09L.44 8.26h2.19c1.65 0 3.21-.89 3.5-2.03.04-.2.04-.73-.09-1.04l-.01-.04c-.01-.01-.02-.06.01-.07l.04.03.03.06 1.4 4.04 3.55-4.1h1.86c1 0 1.61.4 1.44 1.13-.18.8-1.05 1.13-1.98 1.13h-.35l.45-1.93h-1.54l-.66 2.83h2.2c1.64 0 3.22-.89 3.48-2.03.27-1.13-.89-2.03-2.55-2.03h-3.27a52.65 52.65 0 0 0-1.03 1.25zM7.55 9.21c-4.17 0-7.55.5-7.55 1.1 0 .6 3.38 1.1 7.55 1.1 4.18 0 7.57-.5 7.57-1.1 0-.6-3.39-1.1-7.57-1.1zm-.25 1.5c-.96 0-1.73-.17-1.73-.37 0-.2.77-.37 1.73-.37.95 0 1.72.17 1.72.37 0 .2-.77.37-1.72.37z"/></g><g transform="translate(746)"><path d="M0 12.76h2.1v-1h-.55v-1.62l1.21 2.62h.73l1-2.54v1.54h-.37v1h2.5v-1h-.57V9.01h.57v-.9H4.36l-1 2.36-1.1-2.36H0v.9h.53v2.75H0Zm0-9.52v.97h.52v2.72H0v.94h2.71v-.94h-.55v-.7h1.58v-.96H2.18V4.22h1.95v.9h1.3V3.24Zm7.37.01L7.35 6.5h1.52v-.36a1 1 0 0 1 .05-.23.5.5 0 0 1 .09-.15.7.7 0 0 1 .15-.15.7.7 0 0 1 .2-.09c.07-.02.22-.04.82-.04l2.99.01a10.9 10.9 0 0 0-.83.52c-.13.1-.25.2-.37.34a14.48 14.48 0 0 0-.75 1.19l-.22.48a13.07 13.07 0 0 0-.78 1.93c-.12.37-.23.77-.3 1.24-.06.47-.07 1.02-.09 1.57h2.96v-1a6.6 6.6 0 0 1 .14-1.26l.22-.93.27-.97.15-.56a5.94 5.94 0 0 1 .32-.8 3.57 3.57 0 0 1 .55-.75l.41-.45c.14-.14.27-.24.4-.32.11-.09.22-.15.34-.19.13-.04.26-.05.4-.06l.02-2.25-8.64.02z" fill="#85c20a"/></g><g transform="translate(772)"><path d="M0 12.76h2.1v-1h-.55v-1.62l1.21 2.62h.73l1-2.54v1.55h-.37v.99h2.5v-1h-.57V9.03h.57v-.9H4.36l-1 2.36-1.1-2.37H0v.9h.53v2.76H0Zm0-9.52v.98h.52v2.7H0v.96h2.71v-.95h-.55v-.7h1.58v-.96H2.18V4.22h1.95v.9h1.3V3.24Zm11.52.01-1.04.05c-.29.02-.42.04-.56.06a25.02 25.02 0 0 0-.73.12 5.7 5.7 0 0 0-.57.17l-.17.07-.18.08-.15.09-.11.08-.1.07-.1.12a2.72 2.72 0 0 0-.27.43 2.02 2.02 0 0 0-.11.52 10.35 10.35 0 0 0-.04 1.36l.06.3a1.24 1.24 0 0 0 .3.49c.05.05.1.1.17.13a2.94 2.94 0 0 0 .57.22l.4.1.32.09c.07.02.08.04.09.05l-.01.04a.26.26 0 0 1-.08.02l-.2.04a6.05 6.05 0 0 0-.68.19c-.1.04-.18.08-.26.14l-.24.2a1.19 1.19 0 0 0-.28.47l-.1.32-.05.35-.04.41a5.2 5.2 0 0 0 .07 1.13 1.3 1.3 0 0 0 .26.5 2.56 2.56 0 0 0 .54.48 2.94 2.94 0 0 0 .95.36 10.86 10.86 0 0 0 3.28.25c.3 0 .51-.03.86-.08.34-.05.83-.14 1.13-.2.31-.08.44-.12.55-.18.1-.05.2-.1.29-.18a1.64 1.64 0 0 0 .47-.56 3.51 3.51 0 0 0 .24-.85 9.75 9.75 0 0 0-.03-.9 1.98 1.98 0 0 0-.1-.42c-.03-.13-.08-.25-.11-.33l-.09-.2a1.48 1.48 0 0 0-.2-.3.66.66 0 0 0-.14-.15.95.95 0 0 0-.2-.11 3.37 3.37 0 0 0-.5-.2 3 3 0 0 0-.23-.07l-.24-.05-.1-.04v-.04c0-.01 0-.03.02-.04a.4.4 0 0 1 .13-.02l.33-.04a3.4 3.4 0 0 0 1.05-.39c.07-.06.14-.14.2-.22.05-.09.1-.17.13-.26s.06-.18.07-.42v-.91a3.22 3.22 0 0 0-.23-1.02 1.79 1.79 0 0 0-.27-.41l-.2-.16a2.6 2.6 0 0 0-.78-.37 5.21 5.21 0 0 0-1.33-.27 16.14 16.14 0 0 0-1.66-.1zm.21.74c.14 0 .3.02.45.05a1.35 1.35 0 0 1 .65.33c.07.1.13.2.17.32a4.65 4.65 0 0 1 .11.97 17.64 17.64 0 0 1-.06 1.31.87.87 0 0 1-.08.28.64.64 0 0 1-.18.21c-.08.06-.18.12-.27.16a1.41 1.41 0 0 1-.63.16 2.5 2.5 0 0 1-.6-.04 2.05 2.05 0 0 1-.45-.14 1.4 1.4 0 0 1-.34-.25.37.37 0 0 1-.06-.08.82.82 0 0 1-.07-.14 6.33 6.33 0 0 1-.08-.84v-.67c0-.23.02-.43.03-.56 0-.13.01-.18.02-.24a.77.77 0 0 1 .22-.44 1.54 1.54 0 0 1 .8-.38h.37zm-.03 4.26a2.47 2.47 0 0 1 .55.09c.12.03.26.08.36.13a.83.83 0 0 1 .36.36 5.18 5.18 0 0 1 .13 1.33 13.75 13.75 0 0 1-.12 1.25.86.86 0 0 1-.35.46 1.84 1.84 0 0 1-1.33.2 2.2 2.2 0 0 1-.68-.28.78.78 0 0 1-.24-.28 1.27 1.27 0 0 1-.1-.39c-.03-.13-.03-.27-.03-.45a15.52 15.52 0 0 1 .01-1.03l.04-.31a1.4 1.4 0 0 1 .14-.58c.04-.06.09-.1.13-.13l.15-.1c.06-.04.12-.09.19-.12l.2-.07a1.55 1.55 0 0 1 .49-.08h.1z" fill="#abad1f"/></g><g transform="translate(798)"><path d="M12.72 5.2H16V3.25H7.14v1.97h3.24v2.67h2.34Zm.01 2.91h-2.35v4.65h2.35zM0 12.76h2.1v-1h-.55v-1.62l1.21 2.62h.73l1-2.54v1.55h-.37v.99h2.5v-1h-.57V9.03h.57v-.9H4.36l-1 2.36-1.1-2.37H0v.9h.53v2.76H0Zm0-9.52v.98h.52v2.71H0v.95h2.71v-.95h-.55v-.7h1.58v-.96H2.18V4.22h1.95v.9h1.3V3.25Z" fill="#2eb85c"/></g><g transform="translate(824)"><path fill="#1900cd" d="M0 4h16v8H0z"/><path d="M8.1 9.74H7.03V6.2h1.5c.79 0 1.18.53 1.18 1.68 0 1.4-.42 1.85-1.63 1.85zm7.33-5.01H14.2l-.04.1-1.37 4.18-1.47-4.17-.04-.09H10l.1.28.26.68a2.02 2.02 0 0 0-1.82-.98H5.91v5.42L3.96 4.84l-.03-.09h-1l-.04.09-2.22 6.15-.1.28h2.8V9.82H2.23l1.14-3.39 1.6 4.73.04.09h3.27c1.71 0 2.6-1.12 2.6-3.3 0-.4-.04-.73-.1-1.04l1.57 4.25.03.09h.76l.04-.09 2.15-6.15z" fill="#fff"/></g><g transform="translate(850)"><path d="M15.5 9.99c-.34-.1-.72-.04-.72-.04s-1.09.11-1.66-.01c-.88-.16-.85-1.14-.85-1.14s-.03-.65.5-1.53C13.43 6.2 14.15 6 14.15 6s.18-.07.35.02c.1.63.7.63.7.63s.84.05.8-1c-.1-.88-.91-1-1.26-1.08-1.02-.2-1.68.37-1.68.37s-.7.39-1.51 1.73a3.61 3.61 0 0 0-.63 1.48s-.07.15-.04.84c-.02.54.18.93.18.93s.3.93 1.23 1.31c.57.25 1.4.24 1.4.24s.81 0 1.43-.04c.34.02.5-.16.5-.16s.38-.25.34-.7c0 0-.07-.46-.46-.58z" fill="#c10b44"/><path d="M1.75 5.28A3.72 3.72 0 0 0 .03 9.04c.19 1.97 2.65 3.2 4.73 1.96.19-.1.12-.1.18-.15l.42-2.75H2.87l-.19 1.27h1.04l-.12.67c-.6.25-1.6.16-2.04-.64-.27-.51-.53-1.64.63-2.68.94-.85 2.56-1 3.5-.56 0 0 .12-.7.2-1.37a4.5 4.5 0 0 0-4.14.5z" fill="#6aab21"/><path d="m6.55 4.65-1.03 6.7h3.02c1.24 0 3.06-1.9 1.4-3.44 1.7-1.82.02-3.24-.89-3.26H6.54zm.74 4.06h1.13c1.06 0 1.03 1.34-.15 1.34H7.09zm.42-2.63h.87c.95 0 .76 1.25-.15 1.25H7.5z" fill="#c79d05"/></g><g transform="translate(876)"><path d="M.06 6.88h1.16V1.97H.06zm.58-5.56c.36 0 .64-.27.64-.62A.63.63 0 0 0 .64.07.63.63 0 0 0 0 .7c0 .35.28.62.64.62zM5.06.08C3.11.08 1.9 1.41 1.9 3.54s1.2 3.45 3.16 3.45 3.17-1.32 3.17-3.45S7.01.08 5.06.08zm0 1.02c1.2 0 1.95.95 1.95 2.44s-.76 2.43-1.95 2.43c-1.2 0-1.95-.94-1.95-2.43 0-1.5.76-2.44 1.95-2.44zM8.72 5c.05 1.23 1.06 2 2.6 2 1.62 0 2.63-.8 2.63-2.07 0-1-.57-1.56-1.93-1.87l-.77-.18c-.82-.2-1.16-.45-1.16-.9 0-.55.51-.92 1.27-.92s1.29.37 1.34 1h1.14c-.02-1.18-1-1.98-2.47-1.98-1.46 0-2.49.8-2.49 2 0 .95.58 1.54 1.82 1.82l.86.2c.85.2 1.19.48 1.19.96 0 .56-.56.96-1.37.96S9.95 5.62 9.88 5H8.72z" fill="url(#a)" style="fill:url(#a)" transform="translate(0 3.95) scale(1.14651)"/></g><g transform="translate(902)"><path d="M16.005 14.85c-.882-1.195-1.556-2.474-1.538-4.147.037-3.373.37-9.628-5.533-9.636-.24 0-.49.01-.752.03-6.596.535-4.846 7.542-4.944 9.888-.12 1.716-.64 3.453-1.874 5.016L16 16c0-.483.004-1.002.005-1.15z" fill="#4d4d4d"/><path d="M11.521 11.214c-.115-.225-.348-.44-.747-.604l-.002-.001c-.828-.357-1.187-.382-1.65-.684-.751-.486-1.373-.657-1.89-.654-.27 0-.512.049-.728.124-.63.218-1.047.672-1.309.921v.001c-.052.05-.118.094-.279.212-.161.119-.403.298-.752.56-.31.234-.41.538-.303.894.107.356.448.767 1.073 1.122l.002.001c.388.23.652.538.956.784.152.123.312.232.505.315s.417.139.698.155c.66.039 1.147-.16 1.576-.407.43-.247.794-.549 1.212-.685h.001c.857-.27 1.467-.812 1.658-1.326.096-.258.093-.502-.021-.728z" fill="#f3d427"/><path d="M9.349 12.485c-.682.357-1.477.79-2.324.79-.846 0-1.515-.393-1.996-.776-.24-.192-.435-.382-.582-.52-.256-.204-.225-.488-.12-.48.176.023.202.255.313.36.15.14.338.323.565.505.455.362 1.06.714 1.82.714.758 0 1.642-.447 2.183-.752.305-.172.695-.481 1.012-.716.244-.18.235-.395.435-.372s.053.24-.228.486c-.282.246-.721.574-1.078.76z" fill="#202020"/><path d="M3.707 16.07a9.167 9.167 0 0 0 .637-3.015c.076.055.335.231.45.297h.001c.338.2.592.493.921.76.33.265.742.495 1.363.532.06.003.118.005.176.005.64 0 1.14-.21 1.557-.45.453-.26.814-.548 1.157-.66h.001c.724-.228 1.3-.631 1.627-1.1.27 1.067.71 2.36 1.187 3.59l-9.077.041zm7.89-7.425a2.83 2.83 0 0 1-.24 1.202 2.33 2.33 0 0 1-.335.563 10.973 10.973 0 0 0-.583-.242c-.131-.05-.234-.084-.34-.12.077-.094.228-.204.285-.342.085-.208.127-.411.135-.654 0-.01.003-.018.003-.029a1.82 1.82 0 0 0-.094-.634 1.172 1.172 0 0 0-.29-.494.595.595 0 0 0-.416-.19h-.021a.608.608 0 0 0-.406.16 1.17 1.17 0 0 0-.325.472c-.085.208-.13.43-.135.655-.002.01-.002.018-.002.028-.003.134.006.257.027.376-.3-.15-.683-.26-.948-.323a3.242 3.242 0 0 1-.027-.359v-.033c-.005-.441.067-.82.236-1.203.168-.384.377-.66.67-.884a1.47 1.47 0 0 1 .925-.331h.016c.335 0 .62.099.915.313.298.218.513.49.687.872.17.371.251.734.26 1.165 0 .011 0 .02.003.032zm-5.056.44a2.617 2.617 0 0 0-.742.338c.017-.128.02-.257.006-.402l-.001-.023a1.756 1.756 0 0 0-.127-.516.994.994 0 0 0-.259-.381.42.42 0 0 0-.317-.12c-.113.01-.206.065-.294.173a1.003 1.003 0 0 0-.188.42c-.042.18-.054.367-.035.552l.002.022c.019.194.057.355.126.518a.986.986 0 0 0 .311.421c-.11.086-.183.146-.274.213l-.207.153a1.9 1.9 0 0 1-.43-.645 2.898 2.898 0 0 1-.24-1.026V8.78c-.02-.38.017-.708.121-1.047.105-.34.244-.585.447-.786.202-.202.405-.304.651-.316l.057-.002c.222 0 .42.075.626.24.223.18.392.408.533.731.142.323.217.646.238 1.027v.003a3 3 0 0 1-.004.456z" fill="#ccc"/><path d="M7.658 9.997c.029.09.174.075.259.12.073.037.133.121.216.124.08.002.203-.028.213-.107.014-.105-.138-.17-.236-.21-.125-.048-.286-.073-.404-.008-.027.016-.057.051-.048.08zm-.86 0c-.029.09-.174.075-.258.12-.074.037-.134.121-.217.124-.08.002-.203-.028-.213-.107-.013-.105.138-.17.236-.21.126-.048.287-.073.404-.008.027.016.057.051.048.08z" fill="#202020"/></g><g transform="translate(928)"><path d="m1.89 5.8.01-.02c.82-1.27 2.12-2 3.33-2 1.24 0 2.02.67 3.04.67 1 0 1.6-.68 3.03-.68 1.08 0 2.23.6 3.04 1.61-.22.13-.42.27-.6.42H1.88z" fill="#4d9537"/><path d="M10.21 2.63A3.5 3.5 0 0 0 11 .05c-.85.05-1.85.6-2.43 1.3-.52.65-.96 1.6-.79 2.52.93.03 1.89-.52 2.44-1.24z" fill="#4d9537"/><path d="M1.89 5.8c-.35.56-.6 1.34-.66 2.03h11.36c.12-.76.5-1.47 1.14-2.03H1.9z" fill="#ca8a02"/><path d="M1.29 9.87a7.73 7.73 0 0 1-.06-2.04h11.36c-.11.69-.02 1.4.26 2.04H1.3z" fill="#c35f09"/><path d="M1.84 11.9a9.6 9.6 0 0 1-.55-2.03h11.56c.36.8 1.02 1.5 1.96 1.85l-.08.18H1.84z" fill="#b01c1f"/><path d="M14.73 11.9a10.85 10.85 0 0 1-1.14 2.03H2.92l-.1-.16c-.4-.6-.73-1.24-.98-1.87h12.89z" fill="#903b91"/><path d="M13.6 13.93c-.66.96-1.54 2.01-2.6 2.02-1.04.01-1.3-.67-2.71-.67-1.41.01-1.7.69-2.74.68-1.11-.01-1.98-1.05-2.63-2.03h10.67z" fill="#0092cc"/></g><g transform="translate(954)"><g transform="scale(3.77956)"><path d="M2.06.26.14 2.55c-.04.05-.09.1-.07.16.02.06.1.13.13.16l.34.29.78.65.25.2c.03.03.1.09.15.08.06 0 .1-.06.45-.46L3.78 1.7c.06-.06.1-.12.1-.18s-.08-.12-.34-.33L2.6.39C2.35.17 2.28.13 2.22.13s-.11.07-.16.13z" fill="#666"/><path d="m2.02.8-.43.52c-.13.15-.18.21-.17.27 0 .06.07.12.25.26l.62.53c.17.14.24.2.3.2.05 0 .09-.06.22-.2l.47-.57c.13-.15.17-.2.16-.26-.02-.05-.09-.1-.26-.25L2.56.78c-.17-.15-.24-.2-.3-.2-.05 0-.1.04-.11.07L2.02.8z" fill="url(#b)"/><path d="m3.54 1.2.2-.23c.05-.06.07-.1.1-.1.02 0 .04.01.07.04l.1.08.05.06c0 .02 0 .04-.06.1l-.22.26-.25-.2z" fill="#8c8c8c"/><rect transform="rotate(40)" x="2.06" y=".58" width=".45" height=".29" ry=".08" fill="#e2e2e2"  /><rect transform="rotate(40)" x="3.23" y=".58" width=".45" height=".29" ry=".08" fill="#e2e2e2"  /><rect transform="rotate(40)" x="2.06" y="1.03" width=".45" height=".29" ry=".08" fill="#e2e2e2" /><rect transform="rotate(40)" x="2.06" y="1.46" width=".45" height=".29" ry=".08" fill="#e2e2e2" /><rect transform="rotate(40)" x="3.23" y="1.03" width=".45" height=".29" ry=".08" fill="#e2e2e2" /><rect transform="rotate(40)" x="3.23" y="1.46" width=".45" height=".29" ry=".08" fill="#e2e2e2" /><rect transform="rotate(40)" x="2.64" y="1.46" width=".45" height=".29" ry=".08" fill="#e2e2e2" /><rect transform="rotate(40)" x="2.64" y="1.03" width=".45" height=".29" ry=".08" fill="#e2e2e2" /><rect transform="rotate(40)" x="2.64" y=".58" width=".45" height=".29" ry=".08" fill="#e2e2e2"  /></g></g><g transform="translate(980)"><path d="M0 3.8h16v8.4H0z"/><path d="m.86 11.34 1.24-6.7h1.15l.6 2.92.61-2.92h1.08l1.02 4.93h2.47c.26 0 .28-.74-.02-.74L7.57 8.8c-.62 0-1.27-.91-1.24-2.13 0-1.13.72-2.01 1.63-2.01h3.68l.93 1.74.92-1.76 1.52.01-1.67 3.22 1.8 3.5-1.51-.01-1.05-2-1 2h-1.54L11.8 7.9l-.77-1.53h-3.2c-.34.01-.33.77 0 .75l1.35.03c.57 0 1.37.82 1.35 2.08.01 1.48-.95 2.15-1.42 2.11l-3.52.01L5 8.34l-.58 3H3.3l-.62-2.99-.53 3z" fill="#e4e4e4"/></g><g transform="translate(1006)"><path d="M11.62 10.1c.4.26 1.25.46 1.9.46.73 0 1.03-.4 1.03-.88 0-.44-.28-.7-1.08-1.15-1.06-.62-1.84-1.1-1.84-2.2 0-1.13.94-1.8 2.37-1.8.77 0 1.04.07 1.53.21v1.08c-.48-.14-.9-.39-1.57-.39-.7 0-1 .35-1 .72 0 .53.46.78 1.27 1.23 1.14.64 1.77 1.13 1.77 2.2 0 1.11-.8 1.9-2.58 1.9-.73 0-1.23-.07-1.8-.21zm-3.8-4.62h-.85v5.06h.85c1.3 0 2.13-.88 2.13-2.52 0-1.64-.82-2.54-2.13-2.54zm2.28 5.53c-.42.3-1.21.5-1.9.5H5.53V4.53h2.65c.7 0 1.5.2 1.92.5 1.02.72 1.35 1.88 1.35 2.98s-.33 2.27-1.36 3z" fill="#b1b1b4"/><path d="M3.68 7.66s1.24-.3 1.24-1.5c0-1.18-1.32-1.66-2.73-1.66-1.26 0-2.1.24-2.1.24V5.8c.58-.22 1.13-.4 1.88-.4.8 0 1.42.37 1.42.9 0 .63-.6 1-1.92 1h-.6v.96h.56c1.38 0 2.16.32 2.16 1.1 0 .7-.7 1.14-1.57 1.14-.76 0-1.46-.26-2.02-.5v1.15c.27.07.99.3 2.33.3 1.48 0 2.77-.74 2.77-2.05 0-1.1-.9-1.75-1.42-1.75z" fill="#d0000f"/></g><g transform="translate(1032)"><path d="M9.3 10.05a9.5 9.5 0 0 0 2.92.44c1.1 0 1.56-.37 1.56-.85 0-.43-.42-.68-1.64-1.13-1.63-.6-2.83-1.07-2.83-2.15 0-1.1 1.44-1.76 3.63-1.76 1.18 0 1.59.07 2.33.2l.01 1.06c-.74-.13-1.39-.37-2.4-.37-1.08 0-1.54.34-1.54.7 0 .51.7.76 1.96 1.2 1.73.62 2.7 1.1 2.7 2.15 0 1.08-1.21 1.86-3.94 1.86-1.12 0-1.9-.07-2.75-.22zM3.5 5.53H2.2v4.93h1.3c1.99 0 3.25-.86 3.25-2.46S5.49 5.53 3.49 5.53zm3.48 5.38c-.64.29-1.86.48-2.92.48H0V4.62h4.06c1.06 0 2.28.18 2.92.47C8.55 5.8 9.06 6.93 9.06 8s-.5 2.2-2.08 2.91z" fill="#ccc"/></g><g transform="translate(1058)"><path d="M9.14 3.87a1.76 1.76 0 1 1-3.52 0 1.76 1.76 0 1 1 3.52 0zM4.46 2.2c.54.17.84.76.67 1.3l-3.09 9.61a1.04 1.04 0 1 1-1.98-.63l3.09-9.61c.18-.55.76-.85 1.3-.67zM8 7.45a1.76 1.76 0 1 1-3.52 0 1.76 1.76 0 1 1 3.53 0zm8.04-3.58a1.76 1.76 0 1 1-3.52 0 1.76 1.76 0 1 1 3.52 0zM11.36 2.2c.54.17.84.76.67 1.3l-3.09 9.61a1.04 1.04 0 1 1-1.98-.63l3.09-9.61c.18-.55.76-.85 1.3-.67zm3.54 5.25a1.76 1.76 0 1 1-3.52 0 1.76 1.76 0 1 1 3.53 0z" fill="#ca1c02"/></g><g transform="translate(1084)"><path d="M8 1a7 7 0 1 0 0 14A7 7 0 0 0 8 1zm0 12.53a.98.98 0 1 1 0-1.96.98.98 0 0 1 0 1.96zm1.36-4.45-.02.01a1.1 1.1 0 0 0-.62.97.72.72 0 0 1-1.44 0c0-.96.56-1.85 1.43-2.27l.01-.01A1.7 1.7 0 1 0 6.3 6.24a.72.72 0 0 1-1.44 0 3.15 3.15 0 1 1 4.5 2.84z" fill="#bec10b"/></g><g transform="translate(1110)"><path d="M11.14 6.3c2.4-.29 4.5 1.41 3.76 3.62-.11.34-.77 1.08-.77 1.08s1 .84 1.12 1.37c.45 2.25-1.44 3.58-3.36 3.63-2.03.05-4.27-1.19-3.83-3.5.06-.32.29-.61.4-.8.13-.19.69-.7.69-.7s-.75-1.06-.82-1.51c-.26-1.64.83-2.97 2.8-3.2zM10.66 9c0 1.18 1.98 1.16 1.98.06 0-1.25-1.98-1.27-1.98-.06zm1.02 5.16c1.56 0 1.57-2.1-.02-2.1-1.6 0-1.55 2.1.02 2.1z" fill="#cc6700"/><path d="M12.3.12v1.2c-3.77-.89-3.74 4.41-.04 3.53v1.2C6.53 7.3 6.5-1.03 12.3.12z" fill="#e6e6e6"/><path d="m5.27 3.7.01-1.19c.67 0 1.07-.2 1.07-.62 0-.34-.07-.69-1.42-.69v4.97H3.5V0h1.4c2.7 0 3 .95 3 1.85 0 1.3-1.04 1.86-2.63 1.86z" fill="#e6e6e6"/><path d="M3.7 6.3C6.13 6 8.22 7.7 7.48 9.91 7.36 10.26 6.7 11 6.7 11s1 .84 1.12 1.37c.46 2.25-1.44 3.58-3.36 3.63-2.03.05-4.26-1.2-3.83-3.5.06-.32.29-.61.4-.8.13-.19.69-.7.69-.7S.97 9.94.9 9.49c-.26-1.64.83-2.97 2.8-3.2zM3.24 9c0 1.18 1.98 1.16 1.98.06 0-1.25-1.98-1.27-1.98-.06zm1.03 5.16c1.55 0 1.56-2.1-.03-2.1-1.6 0-1.55 2.1.03 2.1z" fill="#cc6700"/></g><g transform="translate(1136)"><path d="M4.7 16H2.2l2.03-3.63c-.55 0-2.07-.26-2.63-.7a2.9 2.9 0 0 1-.9-3.1c.45-1.53 2.38-2.67 4.49-2.2 1.5.34 2.38 1 2.64 2.46a3.4 3.4 0 0 1-.43 2.31zM2.85 9.48c0 1.58 2.76 1.62 2.76.06 0-1.63-2.76-1.65-2.76-.06zm8.29-3.18c2.4-.29 4.5 1.41 3.76 3.62-.11.34-.77 1.08-.77 1.08s1 .83 1.12 1.37c.45 2.25-1.44 3.58-3.36 3.63-2.03.05-4.27-1.19-3.83-3.5.06-.32.29-.61.4-.8.13-.19.69-.7.69-.7s-.75-1.06-.82-1.51c-.26-1.64.83-2.97 2.8-3.2zM10.66 9c0 1.18 1.98 1.16 1.98.06 0-1.25-1.98-1.27-1.98-.06zm1.02 5.16c1.56 0 1.57-2.1-.02-2.1-1.6 0-1.55 2.1.02 2.1z" fill="#c00"/><path d="M12.42.12v1.2c-3.8-.89-3.78 4.41-.05 3.53v1.2c-5.78 1.25-5.8-7.08.05-5.93z" fill="#e6e6e6"/><path d="M5.32 3.7V2.52c.68 0 1.08-.2 1.08-.62 0-.35-.06-.69-1.42-.69v4.97H3.52L3.53 0h1.42c2.71 0 3.03.95 3.03 1.85 0 1.3-1.06 1.86-2.66 1.86z" fill="#e6e6e6"/></g><g transform="translate(1162)"><path d="M1.03 12.32s1.16.04 1.34-.7l.07-1.4 1.35-.5A2.84 2.84 0 0 0 5.6 6.9V5.43c0-1.2-1.17-1.46-1.92-1.21L.04 5.53 0 11.26c.05 1.11 1.03 1.06 1.03 1.06zM2.14 6.8c0-.08.05-.13.2-.2l.82-.3c.26-.1.34-.07.34.18V7.7c0 .15-.15.27-.32.33l-.79.28c-.18.06-.25.07-.25-.13zm7.39-1.92 1.75-.62c.18-.07.14-.45.14-.53 0-1.16-1.01-1.7-1.73-1.43l-1.7.58c-1 .38-2.02.92-2.24 2.6v3.26c0 2 1.56 1.64 2.18 1.41L10.8 9.1c.48-.19.84-.68.77-1.32-.05-.4-.1-.79-.17-1.18-.02-.12-.02-.23-.16-.18l-1.7.62c-.16.06-.26.09-.26.28 0 .2.02.36-.27.46l-.9.31c-.1.04-.25.05-.25-.23V5.04c0-.13.05-.2.23-.26l.96-.33c.15-.05.26-.05.26.1v.18c0 .23.1.2.22.15zM14.8.66l-2.8.98c-.11.04-.14.14-.14.29V8.5c0 .21.06.23.22.18l3.6-1.3c.08-.02.11-.01.11-.13v-.6c0-.22-.03-.3-.22-.23L13 7.36c-.18.06-.25.1-.25-.14V5.5c0-.17.04-.18.1-.2l1.5-.55c.1-.04.24-.09.24-.22v-.56c0-.12-.06-.2-.32-.1L13 4.33c-.22.09-.25.04-.25-.16v-1.7c0-.07-.02-.11.17-.18l2-.75c.15-.05.18-.03.18-.18V.8c0-.17-.05-.22-.3-.14z" fill="#cc2000"/><path d="M10.34 11.45 6.9 15.22c-.07.09-.03.12.06.07l4.46-2.78c.08-.05.1-.07.16-.05.07.02 1.67 1.17 1.67 1.17.11.08.17.04.13-.05l-.83-1.81c-.04-.1-.06-.17-.01-.21l3.36-3.67c.08-.12.03-.18-.1-.1l-4.17 2.58c-.1.06-.15.06-.21.02L9.87 9.34c-.16-.09-.21-.05-.17.13l.7 1.72c.05.1.02.17-.06.26z" fill="#cc2000" stroke="#fff" stroke-miterlimit="2.61" stroke-width=".12"/></g><g transform="translate(1188)"><g fill="#666"><path d="M7.91 1.1a.5.5 0 0 1-.5.5.5.5 0 0 1-.5-.5.5.5 0 0 1 .5-.5.5.5 0 0 1 .5.5z"/><path d="m7.4 12.79-3.47-1.98.94-.5c.69 1 2.07 1.08 3.16.98.65-.2-.13.25-.1.43.13.34.51.14.7.09.46-.27.93-.57 1.22-1.1.16-.48.1-.22.47-.63.35-.36.38-.92.78-1.23.43-.39.63-.94.86-1.46.78-.72 1.5-1.67 1.47-2.78.04-.85-.48-1.6-1.1-2.12a7.49 7.49 0 0 0-3.64-1.47c-.3-.1-.6.25-.39.52.6.24 1.26.24 1.86.49.95.35 1.93.88 2.45 1.8.44.89-.02 1.97-.7 2.61l-.02.03a3.76 3.76 0 0 0-.92-1.12A6.5 6.5 0 0 0 7.4 4.22v-2.4L1.14 5.2v7.12h.01v.13L7.41 16l6.25-3.56V9.23zm0-5.44c.71.04 1.44.15 2.05.53.08.06.18.1-.06.17a9.7 9.7 0 0 1-1.24.24s-.42.03-.56.02H7.4zm-.44 1.83c.38-.04.77-.02 1.13.07.21.06.48.06.62.26-.7.12-1.42.13-2.12.09l-.32-.05zm.38 1.48c-.62-.03-1.35-.08-1.8-.57a7.3 7.3 0 0 0 3.8-.06c-.53.48-1.3.61-2 .63zm2.24-1.48c-.17-.2-.4-.32-.63-.38l1.12-.31c.21.39-.16.6-.49.7zm1.2-3.15c.29.26.44.62.54.99-.22.16-.45.32-.69.46-.16.05-.34.25-.5.08a4.94 4.94 0 0 0-2.73-.89V4.9c1.2.02 2.47.3 3.37 1.13z"/></g><path d="M8.8.82c-.2-.27.1-.63.4-.51 1.29.2 2.6.62 3.62 1.46.63.52 1.15 1.27 1.1 2.12.03 1.11-.68 2.06-1.46 2.78-.23.52-.43 1.07-.86 1.46-.4.31-.43.87-.78 1.23-.38.41-.3.15-.47.64a3 3 0 0 1-1.23 1.09c-.18.05-.56.25-.68-.08-.04-.19.74-.65.09-.44-1.1.1-2.47.03-3.15-.97-.13-.3-.11-.4-.11-.57-.5-.36-.85-.9-.8-1.53-.55-.38-1.07-.92-1.1-1.63-.09-.69.45-1.25 1-1.58a6.8 6.8 0 0 1 3.52-.79c1.25.08 2.56.35 3.58 1.13.4.29.67.7.92 1.12l.02-.03c.68-.64 1.14-1.72.7-2.62a4.48 4.48 0 0 0-2.45-1.79c-.6-.25-1.26-.25-1.86-.49zM4.34 5.14c-.63.5-.17 1.51.47 1.71.86-.7 2-.9 3.08-.9.97.06 1.96.28 2.74.89.16.17.34-.03.5-.07.24-.15.47-.3.7-.47a1.9 1.9 0 0 0-.56-.98A5.06 5.06 0 0 0 7.9 4.19c-1.23-.03-2.58.13-3.56.95zm4.3 2.43a9.68 9.68 0 0 0 1.25-.24c.24-.07.14-.1.06-.17a4.28 4.28 0 0 0-2.04-.53c-.77 0-1.58.08-2.27.46-.07.05-.3.09 0 .17.67.23 2.3.33 2.45.33l.56-.02zm-3.52.25c.06.16.19.4.44.55.1-.07.27-.15.41-.22L6.25 8H6c-.31-.04-.58-.1-.88-.18zm4.33.26c.24.07.46.17.63.38.33-.09.7-.3.5-.7-.38.12-.76.22-1.13.32zm-3.09.64c.21.12.5.11.73.16.7.05 1.42.03 2.12-.09-.14-.2-.4-.2-.62-.26a3.94 3.94 0 0 0-2.23.19zm-.33.65c.46.49 1.19.54 1.81.57.7-.02 1.47-.15 2-.63a7.26 7.26 0 0 1-3.8.06z" fill="#01015b"/><path d="M8.41.5a.5.5 0 0 1-.5.5.5.5 0 0 1-.5-.5.5.5 0 0 1 .5-.5.5.5 0 0 1 .5.5zM7.9 15.28l-6.25-3.56V8.51l6.26 3.56z" fill="#01015b"/><path d="m7.9 15.28 6.26-3.56V8.51l-6.25 3.56z" fill="#f00020"/><path d="M1.64 11.6 7.9 8.22V1.1L1.64 4.48z" fill="#cb9a01"/><path d="M8.8.82c-.2-.27.1-.63.4-.51 1.29.2 2.6.62 3.62 1.46.63.52 1.15 1.27 1.1 2.12.03 1.11-.68 2.06-1.46 2.78-.23.52-.43 1.07-.86 1.46-.4.31-.43.87-.78 1.23-.38.41-.3.15-.47.64a3 3 0 0 1-1.23 1.09c-.18.05-.56.25-.68-.08-.04-.19.74-.65.09-.44-1.1.1-2.47.03-3.15-.97-.13-.3-.11-.4-.11-.57-.5-.36-.85-.9-.8-1.53-.55-.38-1.07-.92-1.1-1.63-.09-.69.45-1.25 1-1.58a6.8 6.8 0 0 1 3.52-.79c1.25.08 2.56.35 3.58 1.13.4.29.67.7.92 1.12l.02-.03c.68-.64 1.14-1.72.7-2.62a4.48 4.48 0 0 0-2.45-1.79c-.6-.25-1.26-.25-1.86-.49zM4.34 5.14c-.63.5-.17 1.51.47 1.71.86-.7 2-.9 3.08-.9.97.06 1.96.28 2.74.89.16.17.34-.03.5-.07.24-.15.47-.3.7-.47a1.9 1.9 0 0 0-.56-.98A5.06 5.06 0 0 0 7.9 4.19c-1.23-.03-2.58.13-3.56.95zm4.3 2.43a9.68 9.68 0 0 0 1.25-.24c.24-.07.14-.1.06-.17a4.28 4.28 0 0 0-2.04-.53c-.77 0-1.58.08-2.27.46-.07.05-.3.09 0 .17.67.23 2.3.33 2.45.33l.56-.02zm-3.52.25c.06.16.19.4.44.55.1-.07.27-.15.41-.22L6.25 8H6c-.31-.04-.58-.1-.88-.18zm4.33.26c.24.07.46.17.63.38.33-.09.7-.3.5-.7-.38.12-.76.22-1.13.32zm-3.09.64c.21.12.5.11.73.16.7.05 1.42.03 2.12-.09-.14-.2-.4-.2-.62-.26a3.94 3.94 0 0 0-2.23.19zm-.33.65c.46.49 1.19.54 1.81.57.7-.02 1.47-.15 2-.63a7.26 7.26 0 0 1-3.8.06z" fill="#3737fd"/><path d="M8.41.5a.5.5 0 0 1-.5.5.5.5 0 0 1-.5-.5.5.5 0 0 1 .5-.5.5.5 0 0 1 .5.5zM7.9 15.28l-6.25-3.56V8.51l6.26 3.56z" fill="#3737fd"/><path d="m7.9 15.28 6.26-3.56V8.51l-6.25 3.56z" fill="#cc001b"/></g><g transform="translate(1214)"><path d="m8.97 3.72-.01 11.6-3.11-1V.66l3.97 1.05c2.54.69 4.1 2.01 4.07 4.34-.03 2.7-1.28 3.8-3.72 3.08V3.81c0-.65-1.2-.68-1.2-.09z" fill="#de0029"/><path d="m4.42 12.06-1.47.5c-.95.33-1.76-.45-.88-.76l.7-.25-2.66-.85c-.82.28-1.6.87-1.55 1.7.06.85 1.99 1.05 3.48 1.3a7.6 7.6 0 0 0 3.8-.3v-.88zm4.56 3.27 2.72-.95-2.74-.87v1.75z" fill="#f3c202"/><path d="m16.21 12.79.05-.02c1.19-.41 1.7-1 1.57-1.54-.2-.91-1.66-1.4-3.9-1.57a12 12 0 0 0-4.72.77l-.25.1 2.76.85 1.62-.54c1.7-.32 2.38.24.75.76l-.81.27zM5.85 8.77l-1.23.41 1.23.38z" fill="#326db3"/><path d="m11.7 14.38 4.51-1.6-2.93-.9-4.33 1.47v.16zm-5.85-2.8-1.43.48 1.43.46zm3.1.75v-1.8l2.77.85zm-6.18-.78 3.07-1.1v-.89l-1.22-.38-4.45 1.5-.06.02z" fill="#00aa9e"/><path d="m8.97 3.72-.01 11.6-3.11-1V.66l3.97 1.05c2.54.69 4.1 2.01 4.07 4.34-.03 2.7-1.28 3.8-3.72 3.08V3.81c0-.65-1.2-.68-1.2-.09z" fill="#cc0026"/><path d="m4.42 12.06-1.47.5c-.95.33-1.76-.45-.88-.76l.7-.25-2.66-.85c-.82.28-1.6.87-1.55 1.7.06.85 1.99 1.05 3.48 1.3a7.6 7.6 0 0 0 3.8-.3v-.88zm4.56 3.27 2.72-.95-2.74-.87v1.75z" fill="#caa202"/><path d="m16.21 12.79.05-.02c1.19-.41 1.7-1 1.57-1.54-.2-.91-1.66-1.4-3.9-1.57a12 12 0 0 0-4.72.77l-.25.1 2.76.85 1.62-.54c1.7-.32 2.38.24.75.76l-.81.27zM5.85 8.77l-1.23.41 1.23.38z" fill="#2d639f"/><path d="m11.7 14.38 4.51-1.6-2.93-.9-4.33 1.47v.16zm-5.85-2.8-1.43.48 1.43.46zm3.1.75v-1.8l2.77.85zm-6.18-.78 3.07-1.1v-.89l-1.22-.38-4.45 1.5-.06.02z" fill="#00ccbe"/></g><g transform="translate(1240)"><path d="M0 12h1V9h3V5H0v1h3v2H0Zm8-6h2V5H7v6H4v1h4zm8-1h-5v1h4v2h-4v4h5v-1h-4V9h4z" fill="#7c72b6"/></g><g transform="translate(1266)"><path d="M11 5h4v1h1v5h-1v1h-4v-1h4V9h-4V8h4V6h-4ZM0 12h1V9h3V6H3V5H0v1h3v2H0Zm8-6h2V5H8v1H7v5H4v1h4z" fill="#999"/></g><g transform="translate(1292)"><path d="M9 11h5v1h1v-1h1v-1h-1V5h-1l-5 5Zm5-5v4h-4zM0 12h1V9h3V6H3V5H0v1h3v2H0Zm8-6h2V5H8v1H7v5H4v1h4Z" fill="#0185cf"/></g><g transform="translate(1318)"><path d="M1.2 12.27c-1.26-.35-1.47-1.08-.9-1.5a6.18 6.18 0 0 1 1.44-.68l3.74-1.3v1.48l-2.7.95c-.47.17-.54.4-.15.53.38.12 1.08.09 1.55-.08l1.3-.46v1.33l-.26.04a8.6 8.6 0 0 1-4.02-.31zm7.88.15 4.2-1.46c.47-.17.54-.4.16-.53a2.88 2.88 0 0 0-1.56.08l-2.8.97V9.94l.16-.06c.64-.2 1.29-.33 1.95-.4a8.45 8.45 0 0 1 3.61.42c1.23.38 1.37.95 1.06 1.33-.31.39-1.08.66-1.08.66l-5.7 2.01zm.5-9.53c2.2.75 2.95 1.68 2.95 3.77 0 2.04-1.28 2.81-2.9 2.04V4.9c0-.45-.09-.86-.51-.98-.33-.1-.53.2-.53.65v9.5l-2.6-.8V1.91c1.1.2 2.71.68 3.58.97z" fill="#999"/></g><g transform="translate(1344)"><path d="M0 12h1V9h3V5H0v1h3v2H0Zm8-6h2V5H7v6H4v1h4zm4 6h1V9h3V5h-4v1h3v2h-3z" fill="#dedede"/></g><g transform="translate(1370)"><path d="M0 12h1V9h3V6H3V5H0v1h3v2H0zm8-6h2V5H8v1H7v5H4v1h4zm2-1 2.5 7h1L16 5h-1l-2 6-2-6Z" fill="#33b4ff"/></g><g transform="translate(1396)"><g transform="translate(0 2.78) scale(1.14286)"><path d="M9.49 1.76a13.88 13.88 0 0 1 2.67-.09.52.52 0 0 0 .46-.85.49.49 0 0 0-.35-.18A9.58 9.58 0 0 0 10.4.62c-.44.03-.9.08-1.38.15-.22.03.16 1.02.47.99z" fill="#ccc"/><path d="M9.49 1.76a13.88 13.88 0 0 1 2.67-.09.52.52 0 0 0 .46-.85.49.49 0 0 0-.35-.18A9.58 9.58 0 0 0 10.4.62c-.44.03-.9.08-1.38.15-.22.03.16 1.02.47.99z" fill="#717171"/><path d="M12.28 3.57h.29v.01c.2.12.3.24.3.38-.06.22-.28.47-.63.74-.42.3-1 .63-1.7.96-1.8.86-1.46 1.76.44.95a10.5 10.5 0 0 0 1.9-1.09c.6-.47.95-.91 1.01-1.34a1.1 1.1 0 0 0-.3-1.11c-.12-.13-1.37.5-1.31.5zM4.33 7.46l-1.55.14h-.01c-.39 0-.68-.03-.87-.1a.47.47 0 0 0-.4.02.48.48 0 0 0-.27.29.5.5 0 0 0 .01.4c.06.13.16.22.29.28.28.1.69.15 1.26.15.47 0 1.03-.05 1.68-.15l.33-.04Z" fill="#252525" stroke-width=".12" stroke="#000"/><path d="M2.52 2.78h.01a7.5 7.5 0 0 0-1.38.86 3.1 3.1 0 0 0-.9.98C.02 5.08 0 5.49.2 5.87c.12.38.5.58 1.13.61.37.03.86-.02 1.49-.14l1.08-.27c.24-.06-.05-1.07-.29-1-.37.1-.7.18-1 .24-.51.1-.91.14-1.22.13l-.24-.01-.01-.01a.37.37 0 0 1 .04-.3c.12-.2.32-.42.61-.65.32-.25.73-.5 1.21-.75 2.87-1.13 3.02-2.56-.48-.93Z" fill="#f1f1f1" stroke-width=".12" stroke="#000"/><path d="m1.15 5.42-.01-.01a.37.37 0 0 1 .04-.3c.12-.2.32-.42.61-.65A14.3 14.3 0 0 1 3 3.71l.55-.85s-1.08.51-1.23.6C.12 4.93.79 5.22.72 6.31c.35.1.2.16 1.15.01.08-.01-.78-.8-.72-.9Z" fill="#2f2f2f"/><circle cx="7.03" cy="4.57" fill="url(#c)" stroke="#33317a" stroke-width=".24" r="4.44"/><path d="M2.57 5.31c-.05.01-1.4.3-1.62.08-.06-.06.15.1.36.38.02.03 0 .09-.03.16l-.02.04-.01.05c0 .03-.02.05-.03.07 0 .08-.05.14-.06.19l.02.05c0 .01-.04.02-.03.03l-.04.03v.01l.1.02c.02 0 .14.02.3.02a5.03 5.03 0 0 0 .92-.07l.37-.05c.09-.02.13 0 .14 0a31.21 31.21 0 0 0 3.8-1.12l2.08-.68a49.25 49.25 0 0 1 2.57-.77c.26-.07.49-.11.68-.14.24-.03.41-.04.5-.02.07.05.4.01.55.26.26.4.4 1.1.5.96.15-.21.24-.41.27-.61.16-.58-.1-1.05-.77-1.47-.2-.17-.6-.21-1.19-.13-.24.03-.52.09-.85.17-.2.05-.44.09-.7.16a39.4 39.4 0 0 0-1.9.6l-2.07.67-1.52.5z" fill="#b9b9b9" stroke-width=".12" stroke="#000"/></g></g><g transform="translate(1422)"><path d="M0 .95h16v14.1H0z"/><path d="m5.7 12.33 2.64-2.6.02-.06-2.66 2 2.7-2.8-2.7 2.06 2.6-2.74-2.6 2.11 2.5-2.8c-.9-.76-3.03-.1-4.88 1.56-1.94 1.73-2.84 3.88-2.01 4.8.82.93 3.06.28 5-1.45.52-.47.97-.97 1.33-1.47z" fill="#609ad2"/><path d="m4.52 10.08-.9-.01v2.28h.9v-.63h.89v1.39H3.18c-.22 0-.43-.22-.43-.43V9.75c0-.31.15-.43.42-.43h2.24v1.51h-.89Z" fill="#080808"/><path d="m10.3 6.62-2.64 2.6-.02.06 2.66-2-2.7 2.8 2.7-2.06-2.6 2.74 2.6-2.11-2.5 2.8c.9.76 3.03.1 4.89-1.56 1.93-1.73 2.83-3.88 2-4.8-.82-.93-3.06-.28-5 1.45-.52.47-.97.97-1.33 1.47z" fill="#e4bb4e"/><path d="M13.31 9.23c0 .22-.22.43-.43.43h-2.23v-3.8h2.23c.22.03.43.22.43.44zm-1.77-.33h.9V6.62h-.9Z"/><path d="M2.93 2.17c.07-.1.18-.22.31-.21h.8l-.01.26c.1-.12.22-.27.4-.26h1.1v2.13h-.75V2.57c-.14-.02-.2.12-.27.21-.26.44-.55.87-.8 1.32h-.78c.31-.53.64-1.04.96-1.56-.16.01-.37-.04-.49.1L2.49 4.1H1.7l1.22-1.93zm2.91.05c.1-.13.3-.28.49-.26h1.63v.47l-1.22.01c-.15.06-.18.25-.28.36H8l-.3.42H6.47v.41h1.5v.47H5.7V2.8a.92.92 0 0 1 .15-.58zm2.46-.07c.07-.09.26-.2.39-.2h1.76v.49H9.3c-.26-.02-.37.27-.45.47 0 .32-.06.32-.02.72.43.03.53.02 1.07 0 .03-.1.01-.22.02-.34-.19-.03-.15-.02-.5-.03l.25-.46h.92v1.07c0 .08-.03.14-.05.21-.7.03-1.4.01-2.1.02-.2.03-.32-.17-.3-.33V2.6c0-.18.07-.3.17-.45zm2.49-.19h1.19c.2-.03.36.15.46.31l1.14 1.83h-.81c-.1-.14-.18-.3-.32-.4h-.72a5.72 5.72 0 0 1-.2-.35v.75h-.74V1.95zm.75.46v.8h.65c-.14-.2-.26-.44-.4-.65a.37.37 0 0 0-.25-.15z" fill="#fff"/></g><g transform="translate(1448)"><path d="M0 9.05c0-.44.34-.78.68-1a4.63 4.63 0 0 1 2.24-.61c.93-.03 1.9.1 2.71.57.4.23.8.63.75 1.12-.07.53-.54.87-.99 1.09a5.6 5.6 0 0 1-3.07.38 3.55 3.55 0 0 1-2-.85 1.02 1.02 0 0 1-.32-.7Z" fill="#5f9933"/><path d="M5.9 12.04c0-.46.36-.82.73-1.06a5 5 0 0 1 2.46-.64c.97 0 1.97.14 2.8.65.41.25.8.7.7 1.22-.13.56-.65.9-1.14 1.11-1.05.44-2.24.5-3.35.31a3.4 3.4 0 0 1-1.94-.93 1.03 1.03 0 0 1-.26-.66Z" fill="#c1bc0b"/><path d="M7.27 8.32a3.04 3.04 0 0 0 2.54-1.58c.56-1 .48-2.31-.2-3.23a3.04 3.04 0 0 0-2.99-1.2 3.04 3.04 0 0 0-2.44 2.38l-.12.57h.26a3.04 3.04 0 0 1 2.95 3.06" fill="#1489b8"/><path d="M13.17 11.31a2.96 2.96 0 0 0 2.48-1.55c.55-1 .44-2.32-.28-3.22A2.96 2.96 0 0 0 12.4 5.5a2.96 2.96 0 0 0-2.25 2.43c-.03.12-.06.4-.06.4l.3.01a2.96 2.96 0 0 1 2.79 2.98z" fill="#bd0f14"/></g><g transform="translate(1474)"><path d="M0 3.64h16v8.72H0z"/><path d="M5.06 4.67v6.58H1.02z" fill="#c00"/><path d="M8.44 4.67v6.58H4.4z" fill="#c00"/><path fill="#0c0" d="M9.34 4.8h1.95v6.5H9.34zm2.36 0h-.06l-.02 2.23.1-.01.42-2.18c-.16-.03-.31-.03-.43-.03zm.76.07-.58 2.16c.05 0 .1.02.15.04L12.98 5a2.7 2.7 0 0 0-.52-.14zm.83.29-1.13 1.96.11.07 1.45-1.75c-.13-.1-.28-.2-.43-.28zm.7.53-1.62 1.58c.04.04.08.08.1.12l1.92-1.21a3.17 3.17 0 0 0-.4-.5zm.55.74L12.55 7.5l.06.12 2.18-.57a3.38 3.38 0 0 0-.25-.62zm.34.95-2.23.35.05.24h2.24c0-.2-.03-.4-.06-.6zm-2.18.78c-.05.53-.46.94-.95.94h-.12v-.05 2.25H12c1.59 0 2.88-1.4 2.93-3.14z"/></g><g transform="translate(1500)"><rect x="2.1" y="2.09" width="4.52" height="11.78" ry="0" fill="#cc0010"/><path d="M4.25 3.9c-.19.04-.46.18-.61.3-.3.27-.46.64-.43 1.08 0 .23.02.3.11.48.14.28.35.49.63.63.2.1.24.1.5.11.22.01.3 0 .46-.05.63-.21 1-.82.9-1.45a1.33 1.33 0 0 0-1.56-1.1zM9.2 1.02A370 370 0 0 0 9.17 8c0 6.33 0 6.97.05 6.98.08.03 2.33.02 2.6 0a3.62 3.62 0 0 0 3-2.43c.19-.54.18-.4.18-4.56 0-3.33 0-3.82-.05-4.04A3.6 3.6 0 0 0 12 1.05C11.8 1 11.5 1 10.48 1c-.7 0-1.28 0-1.29.02z" fill="#818990"/><rect x="10.63" y="7.41" width="2.56" height="2.67" fill="#cc0010" ry="1.28"/><path d="M4 1.05a3.62 3.62 0 0 0-2.87 2.63C1 4.18.99 4.46 1 8.26c0 3.5 0 3.57.06 3.84a3.63 3.63 0 0 0 2.83 2.83c.19.04.43.05 2 .06 1.62.01 1.8.01 1.83-.03.05-.05.05-.6.05-6.95 0-4.7 0-6.92-.03-6.96C7.72 1 7.67 1 5.97 1 4.6 1 4.18 1.01 4 1.05zM6.62 8v5.88l-1.18-.02a6.1 6.1 0 0 1-1.42-.07 2.46 2.46 0 0 1-1.82-1.9c-.06-.29-.06-7.5 0-7.79.17-.81.74-1.49 1.5-1.8.38-.15.56-.16 1.8-.17h1.12z" fill="#818990"/></g><g transform="translate(1526)"><path d="M4 15.55c0-.25 1.79-.45 4-.45 2.2 0 4 .2 4 .45S10.21 16 8 16s-4-.2-4-.45z" fill="#888"/><path d="M4.6 11.3c0-1.2 1.52-2.18 3.4-2.18s3.4.98 3.4 2.19c0 1.2-1.52 2.18-3.4 2.18s-3.4-.98-3.4-2.18z" fill="#e5ca00"/><path d="M4.83 5.6c-.5.22-.63 1.46-.63 1.46s.13 1.25.63 1.46c.5.21 3.17.34 3.17.34s2.67-.13 3.17-.34c.5-.21.63-1.46.63-1.46s-.13-1.24-.63-1.46C10.67 5.4 8 5.26 8 5.26s-2.67.13-3.17.34z" fill="#77f"/><path fill="#c00" d="M4.02 2.56 8 0l3.98 2.56L8 5.12z"/></g><g transform="translate(1552)"><path d="M3.14 2h9.71c.63 0 1.13.5 1.13 1.14v9.71c0 .63-.5 1.13-1.13 1.13H3.14c-.63 0-1.14-.5-1.14-1.13V3.14C2 2.5 2.5 2 3.14 2z" fill="#303030" stroke="#bfbfbf" stroke-width="2.08" paint-order="stroke fill markers"/><path d="m2.5 2 2.3 6.01h.83l2.42-6.04H6.8L5.3 6.43 3.66 2z" fill="#bfbfbf"/><path d="M7.94 2v5.94h.9v-4.5l3.03 4.53h.87V2h-.87v4.4L8.84 2zM6.8 8.01H3.06v5.97h3.78v-.71h.87V8.8h-.9zm-2.76.76h1.9v4.53h-1.9zm8.73.04v1.13h-1.73V8.81h-1.6v1.81h3.33v2.65h-.94v.75H8.69v-.75h-.98v-1.33h1.74v1.33h2.38v-1.33h-.8v-.6H8.7v-.68h-.98V8.84h.98v-.79h3.14v.76z" fill="#bfbfbf"/></g><g transform="translate(1578)"><path d="m.75 8.2 1.08.9c.47-.72 1-1.38 1.55-1.98a1.42 1.42 0 0 1-.12-1.01c-.59-.38-1.2-.8-1.82-1.28A7.24 7.24 0 0 0 .72 8v.23l.03-.04zm1.04-4c.63.47 1.23.9 1.81 1.28a1.42 1.42 0 0 1 1.91-.16 11.45 11.45 0 0 1 2.92-1.4 1.57 1.57 0 0 1 .12-.78c-.87-.74-1.9-1.4-3.09-1.97A7.3 7.3 0 0 0 1.79 4.2zM6.46.88c.94.5 1.77 1.06 2.5 1.67.25-.21.56-.35.9-.38l.22-1.15A7.3 7.3 0 0 0 6.46.88zm4.3.38c-.05.34-.12.67-.18 1 .47.18.84.58.98 1.08.64-.05 1.31-.06 2.01-.03a7.42 7.42 0 0 0-2.8-2.05zm3.37 2.8a17 17 0 0 0-2.55 0 1.6 1.6 0 0 1-.49.87 9.68 9.68 0 0 1 1.2 2.62h.14c.64 0 1.18.42 1.36 1a51 51 0 0 0 1.47.03c.02-.2.02-.39.02-.58 0-1.45-.42-2.8-1.15-3.94zm1.04 5.23c-.46 0-.9-.01-1.34-.03-.12.56-.56 1-1.11 1.11.02.67 0 1.36-.07 2.1.4-.05.82-.11 1.24-.19a7.25 7.25 0 0 0 1.28-2.99zm-.87 3.64A7.97 7.97 0 0 1 8 16a7.97 7.97 0 0 1-8-8 7.97 7.97 0 0 1 8-8 7.97 7.97 0 0 1 8 8 8 8 0 0 1-1.7 4.93zm-1.12.19-.62.07-.09.56c.24-.19.47-.39.68-.6l.03-.03zm-1.54 1.19c.08-.37.14-.72.19-1.07-1.3.07-2.55-.02-3.76-.28a1.28 1.28 0 0 1-1.07.46l-.65 1.68a7.24 7.24 0 0 0 5.3-.79zm-5.98.6c.22-.6.44-1.17.67-1.74-.28-.2-.48-.53-.52-.9a16.95 16.95 0 0 1-3.79-2.13c-.2.34-.39.69-.57 1.04a7.31 7.31 0 0 0 4.21 3.72zm-4.56-4.6.36-.61-.64-.52c.07.39.16.77.28 1.13zm4.86-4.44a1.42 1.42 0 0 1 .07.97c.78.37 1.55.67 2.33.9.28-.85.56-1.73.81-2.65a1.6 1.6 0 0 1-.5-.5 10.94 10.94 0 0 0-2.7 1.28zm-.3 1.58a1.42 1.42 0 0 1-1.78.19c-.53.57-1.02 1.2-1.47 1.88a16.4 16.4 0 0 0 3.54 2.03 1.29 1.29 0 0 1 1.29-.7c.3-.78.6-1.59.89-2.43-.83-.25-1.64-.57-2.47-.97zm4.81-2.18a1.6 1.6 0 0 1-.62.06c-.25.9-.52 1.77-.8 2.6.69.18 1.38.3 2.11.4.1-.21.26-.4.46-.53a9.2 9.2 0 0 0-1.15-2.53zM12 10.33a1.43 1.43 0 0 1-1-1.29 17.3 17.3 0 0 1-2.19-.42c-.3.87-.6 1.7-.92 2.51a1.28 1.28 0 0 1 .47 1.16c1.14.23 2.32.3 3.56.23.08-.77.1-1.5.08-2.19z" fill="#5f57ff"/></g><g transform="translate(1604)"><path d="M8.74 4.6 7.4 9.88S6.36 5.9 6.2 5.35c-.17-.57-.51-.81-1-.81-.5 0-.84.24-1.01.8-.17.57-1.2 4.55-1.2 4.55l-1.35-5.3H0s1.56 5.65 1.78 6.3c.16.52.55.94 1.13.94.67 0 .98-.49 1.12-.93.14-.44 1.16-4.18 1.16-4.18s1 3.74 1.15 4.18c.14.44.45.93 1.12.93.58 0 .97-.42 1.14-.93.2-.66 1.77-6.3 1.77-6.3zm5.58 7.17h1.54V6.8h-1.54zm-.15-6.73c0 .48.41.87.9.87.52 0 .93-.38.93-.87 0-.48-.4-.87-.92-.87-.5 0-.9.4-.9.87zm-2.98 6.73h1.54V6.8H11.2Zm-.15-6.73c0 .48.4.87.9.87.52 0 .93-.38.93-.87 0-.48-.4-.87-.93-.87-.5 0-.9.4-.9.87z" fill="#b1b1b4"/></g><g transform="translate(1630)"><path d="M1.92 7.12c1.9-.88 3.87-.73 5.92.25l1.6-5.64C7.52.78 5.57.36 3.47 1.54Z" fill="#cc3000"/><path d="M9.93 1.87c2.7 1.23 4.62.8 6.07.4l-1.55 5.4c-2.81 1.37-4.49.5-6.13-.12z" fill="#90c200"/><path d="M8.2 8.06c1.8.76 3.7 1.24 6.08.26l-1.93 6.16c-2.27 1.14-4 .75-5.94-.15z" fill="#cc9f00"/><path d="M0 13.93c1.92-1 3.9-.78 5.92.22L7.7 7.86c-.82-.37-2.7-1.4-5.98-.07z" fill="#028bca"/></g><g transform="translate(1656)"><g fill="#009bc8"><path d="M6.14 7.46c0 3.15 3.72 2.7 3.72.5V2.74H6.14Z"/><path d="M1 10.78c0 1.55 1.08 2.48 2.65 2.48h8.95c1.33 0 2.4-.92 2.4-2.24V4.48c0-.8-.59-1.74-1.32-1.74H11.6v5.47c0 4.09-7.13 4.06-7.13.08V2.74H2.9C1.88 2.74 1 3.39 1 4.4z"/></g></g><g transform="translate(1682)"><path d="M11.8 3.42 9.88 0h5.3zM10.7.5l1.2 2.13L14 .49zM8.94 0H3.08l4.41 7.6h5.82m-6.71 0H.82l3.65-3.58zm-4.58-.5h3.72L4.37 4.8zM2 16h5.8l4.36-7.6H4.92l-1.68 1.77h2.04" fill="#b2b2b2"/></g><g transform="translate(1708)"><path d="m2.16 3.69 5.03 8.62H14L8.98 3.7zm1.79 4.62-3.95 4h6.29zm8.1-.62 3.95-4H9.71l2.34 4" fill="#c00"/></g><g transform="translate(1734)"><path d="M0 14.78h16V1.22H0z"/><g transform="matrix(.02503 0 0 -.02503 -2.5 19.48)"><path d="M417.09 553.03 242.8 636.76s175.19 135.82 336.52-5.99z" fill="url(#l)"/><path d="m481.12 501.93 114.42 108s101.09-174.09-67.99-254.9z" fill="url(#m)"  /><path d="M344.64 507.72v-125.5a1488.22 1488.22 0 0 1 72.24 64.1v108.35s-131.23 43.75-214.07 95.92c34.13-38.85 90.55-100.24 141.83-142.88" fill="url(#d)"/><path d="M202.81 650.6c82.85-52.17 214.07-95.92 214.07-95.92v14.45s-170.67 56.89-245.62 118.3c0 0 12.19-14.79 31.55-36.83" fill="url(#e)"/><path d="M176.8 256.1c42.3 28.87 104.91 73.64 167.84 126.12v102.02S258.94 354.18 176.8 256.1" fill="url(#f)" /><path d="M124.31 221.47s20.41 12.74 52.5 34.64c82.14 98.07 167.83 228.14 167.83 228.14v23.47S217.32 314.48 124.31 221.46" fill="url(#g)" /><path d="M416.89 554.68V446.32a1488.71 1488.71 0 0 1 72.24-64.1v125.5c51.28 42.65 107.71 104.03 141.84 142.89-82.85-52.18-214.08-95.92-214.08-95.92" fill="url(#h)" /><path d="M416.89 569.13v-14.45s131.23 43.75 214.08 95.92a1687.36 1687.36 0 0 1 31.54 36.83c-74.95-61.41-245.62-118.3-245.62-118.3" fill="url(#i)" /><path d="M489.13 382.23c62.93-52.48 125.54-97.26 167.84-126.12-82.14 98.08-167.84 228.14-167.84 228.14Z" fill="url(#j)" /><path d="M489.13 484.25s85.7-130.06 167.84-228.14c32.08-21.9 52.5-34.64 52.5-34.64-93.02 93.02-220.35 286.26-220.35 286.26z" fill="url(#k)" /></g></g><g transform="translate(1760)"><g transform="matrix(.4878 0 0 .46892 -3.38 -.23)"><ellipse cx="23.33" cy="17.39" rx="14.35" ry="14.76" fill="#666"/><ellipse cx="23.33" cy="17.39" rx="14.35" ry="14.76" fill="url(#r)"/><ellipse cx="23.33" cy="17.39" rx="14.35" ry="14.76" fill="url(#s)"/></g><path d="M6.23 4.89c-.77.94-4.01 4.74-3.72 7.32.2.25.42.49.65.71-.03-1.97 2.28-4.08 4.08-5.67Z" fill="url(#o)"/><path d="M4.34 2.03c-.4.24-.78.53-1.13.84a5.3 5.3 0 0 1 2.84 2c.53.83.82 1.6 1.2 2.38l.79-.66V3.18a6.89 6.89 0 0 0-3.7-1.15z" fill="url(#q)"/><path d="M9.78 4.89c.77.94 4 4.74 3.72 7.32-.2.25-.42.49-.65.71.03-1.97-2.28-4.08-4.09-5.67z" fill="url(#n)"/><path d="M11.66 2.02c.4.25.78.53 1.12.85a5.29 5.29 0 0 0-2.82 2c-.54.83-.82 1.6-1.2 2.38l-.79-.66V3.17a6.85 6.85 0 0 1 3.68-1.15h.01z" fill="url(#p)"/></g><g transform="translate(1786)"><path d="M8.7 14.97a6.99 6.99 0 0 0 3.1-1.1c.8-.51.97-.72.97-1.14 0-.85-.93-2.33-2.52-4.01-.9-.96-2.16-2.08-2.3-2.05-.26.05-2.37 2.12-3.16 3.09-1.26 1.53-1.83 2.79-1.54 3.35.22.42 1.6 1.25 2.61 1.57.84.27 1.94.38 2.84.3zm5.13-3.12a7.3 7.3 0 0 0 1.14-3.42c.06-.47.04-.74-.12-1.7a6.97 6.97 0 0 0-1.7-3.46c-.35-.36-.38-.37-.8-.23-.53.18-1.08.56-1.94 1.34l-.5.46.27.33a21.72 21.72 0 0 1 3.12 5.15c.28.75.39 1.5.27 1.8-.08.22 0 .14.26-.27zm-11.46.17c-.07-.32.01-.9.2-1.48.42-1.26 1.8-3.61 3.08-5.2l.4-.51-.44-.4a9.14 9.14 0 0 0-1.38-1.1 2.7 2.7 0 0 0-1.02-.38c-.12 0-.57.46-.93.96a7.32 7.32 0 0 0-1.17 2.72c-.14.64-.15 2-.02 2.63.1.53.31 1.2.52 1.66.16.35.55 1.01.72 1.23.09.11.09.11.04-.13zM8.58 2.7c.59-.3 1.5-.62 2-.7.17-.04.47-.05.66-.04.41.02.4 0-.27-.32a6.8 6.8 0 0 0-4.34-.54c-.74.15-1.62.48-2.11.78l-.15.1.34-.02c.67-.04 1.64.23 2.69.74.32.16.59.28.61.28l.57-.28z" fill="#1daf1e"/></g><g transform="translate(1812)"><path d="M0 4.07h16v7.86H0Z" fill="#0f7a10"/><path fill="#fff" d="m11.21 8.2.68-.93a1.92 1.92 0 0 1-.63-.27.71.71 0 0 1-.28-.6.68.68 0 0 1 .3-.6c.27-.16.57-.23.88-.21 1.19 0 1.5.62 1.7.89l.65-.88a1.98 1.98 0 0 0-.4-.46c-.45-.37-1.1-.55-1.97-.55a2.8 2.8 0 0 0-1.78.5 1.6 1.6 0 0 0-.64 1.34c0 .9.5 1.46 1.49 1.77zm3.28-.05c-.3-.26-.76-.47-1.39-.62l-.68.94c.36.07.7.21 1 .41.2.13.3.36.3.59a.81.81 0 0 1-.35.7c-.3.18-.64.27-.98.24-.99 0-1.46-.32-1.93-1.18l-.68.94c.12.25.3.47.5.65.5.4 1.18.6 2.07.6a3.2 3.2 0 0 0 1.95-.53c.46-.35.73-.9.7-1.49a1.6 1.6 0 0 0-.51-1.25zM8.6 11.27h-.29V4.73h.29zm-7.61 0h1.4L3.48 9.8l-.7-.97zm6.16-6.54h-1.4l-.88 1.2.7.97zm-4.56 0H1.2l4.75 6.54h1.4z"/></g><g transform="translate(1838)"><g fill="#914040"><path d="M.92.53h14.16c.23.07.47.16.64.35.14.16.22.37.28.57v13.1a1.3 1.3 0 0 1-.35.64c-.16.14-.37.22-.57.28H.92a1.3 1.3 0 0 1-.64-.35 1.41 1.41 0 0 1-.28-.57V1.45c.06-.2.14-.4.28-.57C.45.7.68.6.92.53M2.13 1.6v1.07h2.14V1.6H2.13m3.2 0v1.07h2.14V1.6H5.33m3.2 0v1.07h2.14V1.6H8.53m3.2 0v1.07h2.14V1.6h-2.14m-9.6 2.13v8.54h11.74V3.73H2.13m0 9.6v1.07h2.14v-1.07H2.13m3.2 0v1.07h2.14v-1.07H5.33m3.2 0v1.07h2.14v-1.07H8.53m3.2 0v1.07h2.14v-1.07h-2.14z"/><path d="M3.35 5.28C3.97 4.7 5 4.5 5.72 5.05c.44.3.66.82.97 1.24.3-.04.5-.34.79-.45.51-.3 1.17-.4 1.71-.11a2 2 0 0 1 .95.97c-.36-.17-.72-.37-1.13-.35-1.05-.01-1.94.96-1.92 2-.03.7.35 1.35.89 1.78.25.2-.23.35-.5.44-.55.28-1.1.55-1.7.7-.34.04-.57-.3-.8-.52a14.4 14.4 0 0 1-1.97-2.7A2.36 2.36 0 0 1 3 5.7c.09-.16.2-.3.34-.43Z"/><path d="M11.4 6.3a1.5 1.5 0 0 1 1.66.67c.34.51.3 1.2.02 1.73-.39.73-.9 1.4-1.44 2-.2.23-.46.55-.8.38-.82-.27-1.57-.7-2.3-1.16-.48-.33-.92-.83-.94-1.45-.07-.78.57-1.57 1.36-1.6.48-.03.89.27 1.27.52.22.08.28-.36.44-.5.19-.25.42-.5.73-.59z"/></g></g><g transform="translate(1864)"><g fill="#914040"><path d="M.85.53h14.27c.43.1.78.45.88.88V14.6c-.1.43-.45.78-.88.88H.88A1.2 1.2 0 0 1 0 14.6V1.4C.1 1 .43.66.85.53M2.13 1.6v1.07h2.14V1.6H2.13m3.2 0v1.07h2.14V1.6H5.33m3.2 0v1.07h2.14V1.6H8.53m3.2 0v1.07h2.14V1.6h-2.14m-9.6 2.13v8.54h11.74V3.73H2.13m0 9.6v1.07h2.14v-1.07H2.13m3.2 0v1.07h2.14v-1.07H5.33m3.2 0v1.07h2.14v-1.07H8.53m3.2 0v1.07h2.14v-1.07z"/><path d="M5.33 4.8 11.72 8l-6.39 3.2z"/></g></g><g transform="translate(1890)"><path fill="#eaeaea" d="M1.64.73h12.72v14.55l-12.72-.02V.73"/><path fill="#706f6f" d="M3.27 2H6v.55H3.27V2zm0 1.45H6V4H3.27v-.55zm0 1.45H6v.55H3.27v-.54zm0 1.46H6v.55H3.27v-.55zm0 1.46H6v.54H3.27v-.54z"/><path fill="#706f6f" d="M1.1 0h13.8v13.08l-.53.02V16H1.63v-2.9l-.55-.02V0m.55.73v11.82h.72v2.72h11.28v-2.72h.72V.73h-1.09v10.36H6.55V.73H1.64"/><path fill="#706f6f" d="M3.27 9.27H6v.55H3.27v-.55zm0 1.46H6v.54H3.27v-.54zm0 1.45H6v.55H3.27v-.55zm0 1.46H6v.54H3.27v-.54z"/><path fill="#939292" d="M6.9.73h6v10h-6v-10z"/></g><g transform="translate(1916)"><path fill="#bdc3c7" d="M7.16.06a7.95 7.95 0 0 1 6.37 13.67 7.93 7.93 0 0 1-8.47 1.69 8.09 8.09 0 0 1-5.04-7.7A7.94 7.94 0 0 1 7.16.07m.58 5.78a2.17 2.17 0 1 0 2.4 1.79"/><path fill="#ecf0f1" d="M7.74 5.84a2.17 2.17 0 1 1-1.87 2.51 2.16 2.16 0 0 1 1.88-2.51Zm-.03.72c-.8.15-1.37 1.07-1.09 1.85.17.53.66.96 1.23.99.33.03.66-.07.96-.24.3-.23.46-.46.56-.78a1.41 1.41 0 0 0-1.09-1.83 1.51 1.51 0 0 0-.57 0ZM2.4 3.32c.36-.44.78-.85 1.24-1.19.92 1.18 1.88 2.47 2.65 3.51A2.95 2.95 0 0 0 5.13 7.6C3.67 7.44 2.09 7.22.8 7.05a7.24 7.24 0 0 1 1.6-3.73Zm8.5 4.95c1.45.13 3.02.37 4.29.52 0 .37-.11.73-.2 1.09a7.31 7.31 0 0 1-2.64 3.84c-.89-1.13-1.8-2.4-2.58-3.4.79-.55.98-1.29 1.13-2.05z"/></g><g transform="translate(1942)"><g fill="#b5b5b5"><path d="M5.13.75c.16-.35.5-.61.88-.68C7.62 0 9.4.03 10.82.05c.02 1.68.01 3.36 0 5.04.61.02 1.22 0 1.83 0 .15.02.34.02.41.18.02.15-.08.27-.16.4L8.48 11.4c-.13.16-.32.35-.55.29-.25-.08-.4-.33-.55-.53L3.14 5.72c-.09-.13-.22-.28-.2-.45.06-.17.26-.16.41-.17.55-.01 1.1.01 1.66-.01V1.5c0-.25 0-.52.12-.76z"/><path d="M.9 11.01c.38-.1.78-.04 1.16-.04.02 1.06.01 2.13 0 3.19 4.09 0 8.08.04 11.87 0v-3.2c.4 0 .79-.04 1.17.05.32.09.52.4.63.69v3.9c-.1.22-.3.38-.54.36-5.17-.1-10.1.13-14.58-.03-.17-.03-.26-.19-.34-.32v-3.9c.1-.3.3-.61.63-.7z"/></g></g><g transform="translate(1968)"><path fill="#b5b5b5" d="M3.8 0c1.5 0 2.8.8 3.8 1.9.4.6-.1 1.3-.8 1.4-1.2.4-2.7.5-3.9 0-1-.7-1-2.2 0-3 .2-.1.6-.3 1-.3Zm0 1.2c-.7.1-.5 1.3.3 1.2h2c0-.7-.8-.7-1.2-1a3 3 0 0 0-1-.2ZM12 0c1.3-.2 2.4 1.6 1.6 2.7-.8 1.1-2.3 1-3.5.9-.9 0-2.3-.7-1.6-1.8A5.6 5.6 0 0 1 11.9 0ZM9.6 2.3c1 .1 2.3.5 3-.5-.4-1.1-1.8-.4-2.4 0l-.6.5zm-8.8 2c.7-.2 1.3-.1 2-.1h4.5V8H1.2c-.4.1-.7-.2-.9-.5V4.8c.2-.2.3-.5.5-.5zm7.9-.1h6.5l.5.6v2.7c-.2.2-.3.5-.6.5H8.7V4.2zM1.2 9.3c.2-.4.7-.5 1-.4h5.1V16H1.8c-.3-.1-.6-.3-.6-.6V9.3zM8.7 9c.9-.2 1.8-.1 2.8-.1h2.7c.3 0 .6.3.6.6v6c-.1.3-.4.4-.6.5H8.7V9z"/></g><g transform="translate(1994)"><g fill="#b5b5b5"><path d="M7.35.25a5.6 5.6 0 0 1 3.12.62c.18.32-.2.65-.25.99L9.6 3.39c-.9.01-1.79-.03-2.68-.04-.48.07-.44-.52-.6-.83-.1-.45-.48-.93-.44-1.36.32-.5.88-.81 1.46-.9Z"/><path d="M3.96 2.04c.2.06.34.26.52.37.5.41 1.03.81 1.53 1.23.03.14-.07.53.14.3.15-.18.34-.32.58-.26l2.71.05c.18.1.42.27.5.43-.12.14-.22.32-.37.42l-3.15-.06c-.22-.09-.3-.4-.53-.5l-2.26-1.4c.05-.2.23-.4.33-.6ZM3.73 4.2c.13-.03.26 0 .4 0l1.46.09c.09 0 .17 0 .25.02l.18.42c-.2.03-.4.03-.61.06l-1.87.18c.06-.26.11-.52.19-.78zm2.76.5c.03-.02.08-.01.12-.01l2.74.1c.07 0 .12.05.17.1.85.68 1.63 1.46 2.33 2.3.48.6.92 1.24 1.24 1.94a4.44 4.44 0 0 1 .3 3.26 4.28 4.28 0 0 1-2.19 2.77c-.25.13-.53.2-.8.3a9 9 0 0 1-5.47-.16 3.98 3.98 0 0 1-1.23-.65 3.23 3.23 0 0 1-1.03-1.45c-.32-.9-.3-1.88-.08-2.8.02-.16.03-.31.07-.47a6.4 6.4 0 0 1 .8-1.8 16.1 16.1 0 0 1 2.87-3.3c.05-.04.1-.1.16-.13m1.06 1.38c-.04.17 0 .34-.02.51-.58.07-1.18.18-1.7.48-.41.24-.78.6-.95 1.07-.15.42-.16.9.02 1.31.2.43.58.74 1 .95.5.26 1.07.37 1.63.44v1.95c-.05.02-.1 0-.16-.01-.43-.08-.87-.2-1.21-.48-.15-.12-.22-.31-.4-.4a.74.74 0 0 0-.9.19.5.5 0 0 0 0 .58 2 2 0 0 0 .61.62 4.3 4.3 0 0 0 1.8.65l.26.04v.42c.01.11.09.21.17.29.22.16.57.12.72-.12.13-.17.03-.4.09-.58a4.6 4.6 0 0 0 1.83-.5c.42-.25.77-.6.95-1.06a1.9 1.9 0 0 0-.08-1.5c-.23-.4-.63-.7-1.06-.88a5.34 5.34 0 0 0-1.65-.33c-.02-.17 0-.35-.01-.52V7.76c.3 0 .57.06.85.15.26.09.52.2.72.4.1.1.17.24.3.33.26.18.65.15.88-.08a.5.5 0 0 0 .11-.58c-.1-.2-.26-.38-.43-.53a4.01 4.01 0 0 0-2.22-.84c-.07 0-.15 0-.2-.03-.03-.2.05-.44-.1-.6-.2-.3-.73-.24-.85.1z"/><path d="M6.28 8.16c.35-.28.8-.36 1.24-.41.02.04.01.08.01.12V9.7c-.14 0-.27-.03-.4-.05a2.06 2.06 0 0 1-.82-.28.67.67 0 0 1-.28-.34.8.8 0 0 1 .25-.86zm2.22 2.72c.35.02.7.06 1.04.17.25.08.49.25.55.52.05.26 0 .55-.18.75-.19.22-.47.3-.74.39-.22.05-.45.1-.67.12-.02-.43 0-.85-.01-1.27v-.68z"/></g></g><g transform="translate(2020)"><g fill="#b5b5b5"><path d="M0 0h16v16H0V0m1.33 1.33v13.34h13.34V1.33Z"/><path d="M2.67 5.33h10.66v1.34H2.67V5.33Zm0 2.67h10.66v1.33H2.67V8Zm0 2.67h8V12h-8v-1.33Z"/></g></g><g transform="translate(2046)"><g fill="#b5b5b5"><path d="M.63 1.72h14.74c.3.06.56.27.63.57v11.42c-.1.29-.32.54-.63.57H.63a.81.81 0 0 1-.63-.57V2.29c.07-.3.34-.51.63-.57m4.03 4.5c-.42.78-.42 1.7-.35 2.56.05.61.21 1.27.7 1.68.45.43 1.13.5 1.7.35.53-.15.94-.58 1.1-1.09a2.4 2.4 0 0 0-.03-1.44c-.25-.63-.93-1.13-1.62-1-.32.01-.57.22-.8.41.03-.38.06-.78.23-1.13a.68.68 0 0 1 .77-.36c.33.05.39.53.73.55a.5.5 0 0 0 .54-.6c-.09-.28-.34-.49-.58-.64a1.85 1.85 0 0 0-2.39.71m7.64-.67c-.32.19-.56.49-.7.82-.14.33-.14.69-.13 1.04.03.72.6 1.4 1.31 1.52.45.08.9-.1 1.23-.4-.05.43-.05.91-.34 1.26-.21.27-.67.34-.9.07-.16-.2-.37-.47-.66-.38-.2.02-.32.2-.38.37-.05.29.14.53.34.7.4.34.97.4 1.46.3a1.8 1.8 0 0 0 1.28-1.07c.28-.63.3-1.35.28-2.03-.04-.64-.14-1.33-.57-1.84a1.8 1.8 0 0 0-2.22-.36m-9.92-.08c-.23.24-.39.55-.66.75-.25.23-.59.34-.84.57-.23.3.1.8.47.66.3-.12.56-.34.8-.55.02 1.19-.02 2.37.02 3.56.07.38.61.51.87.24.21-.18.13-.49.15-.73V5.9c.05-.41-.5-.7-.81-.44m7.26.58c-.36.08-.66.45-.6.82-.01.46.46.86.91.77.45-.05.8-.54.68-.98a.82.82 0 0 0-1-.61m.04 2.53c-.2.04-.4.17-.5.36-.3.38-.1 1 .34 1.18.47.24 1.1-.13 1.14-.66.08-.53-.47-1-.98-.88z"/><path d="M13.01 6.2c.39-.09.76.23.85.6.1.39.11.87-.18 1.2-.23.21-.6.26-.86.06-.35-.27-.35-.76-.33-1.16.02-.3.2-.64.52-.7zm-7 1.84c.42-.1.82.26.85.67.03.38.08.87-.24 1.16a.6.6 0 0 1-.8 0c-.34-.24-.39-.7-.37-1.08.02-.33.22-.68.56-.74z"/></g></g><g transform="translate(2072)"><g fill="#b5b5b5"><path d="M.54.56h14.92c.26.07.45.3.54.54v13.8c-.06.11-.1.24-.2.34-.1.08-.22.15-.34.2H.54A.84.84 0 0 1 0 14.9V1.1C.1.85.28.63.54.56m11.29 3.96a1.9 1.9 0 0 0-1.52.98.59.59 0 0 0 .2.81c.2.15.48.11.68-.03.19-.18.3-.45.53-.6.34-.2.87-.11 1.07.25.17.36.1.88-.26 1.1-.2.15-.48.16-.68.32-.17.2-.15.51.05.7.22.22.6.1.85.3.3.2.43.6.4.96.02.4-.18.83-.56 1-.38.2-.92.07-1.14-.32-.13-.2-.27-.45-.53-.5-.38-.11-.79.22-.78.61.02.3.22.56.43.77.78.76 2.08.82 2.97.24.42-.28.74-.7.89-1.18.15-.57.1-1.23-.3-1.7-.2-.3-.55-.42-.88-.54.22-.18.49-.33.65-.57.2-.24.31-.56.3-.87 0-.7-.5-1.33-1.14-1.6a2.35 2.35 0 0 0-1.23-.13m-7.93.5-2.3 3.4c-.17.25-.4.53-.33.85.02.43.4.77.83.8.65.02 1.3 0 1.96 0 .04.38-.1.82.15 1.14.2.27.66.3.91.08.32-.32.2-.8.23-1.2.24-.04.54-.02.7-.24.2-.23.17-.63-.08-.8-.17-.17-.42-.13-.63-.15-.01-1.22.03-2.44-.01-3.66-.01-.38-.38-.73-.77-.67-.3-.01-.5.24-.66.47m3.86.08c-.36.07-.67.36-.78.7a1.08 1.08 0 0 0 1.64 1.25c.44-.29.6-.91.35-1.37-.2-.46-.73-.69-1.2-.58m.21 3.62a1.1 1.1 0 0 0-.92.55c-.22.37-.18.88.1 1.22a1.08 1.08 0 0 0 1.9-.95c-.12-.48-.6-.84-1.08-.82z"/><path d="m2.5 8.9 1.56-2.35v2.36H2.5Z"/></g></g><g transform="translate(2098)"><g fill="#b5b5b5"><path d="M.5.58h9.6l-.01 3.82-.71.02V1.27H1.19v4.56h4.78v1.62h-3.6l-.02-.32H4.4l.02-.4H.51Z"/><path d="M6.4 4.81H16v6.12h-4.02v.4l2.02.01.01.32-3.97-.01.2-.65-.18-.97h5.22V5.5H7.1v2.57h-.7z"/><path d="m0 8.56 9.6-.02v6.16h-4v.4h2v.32H1.87v-.32h2.07v-.4H0V8.56m.72.7v4.53H8.9V9.27Z"/></g></g><g transform="translate(2124)"><g fill="#914040"><path d="M7.8 0c1.47-.1 2.93.83 3.45 2.21.39.93.2 1.95.25 2.93-.01 1.24.02 2.47-.02 3.7a3.52 3.52 0 0 1-3 3.13 3.51 3.51 0 0 1-3.74-2.2c-.37-.9-.2-1.9-.24-2.84.01-1.27-.02-2.54.02-3.81A3.52 3.52 0 0 1 7.8 0Zm-.29 1.04c-.94.19-1.8.98-1.94 1.96-.13.43-.04.92-.07 1.37V8.7a2.52 2.52 0 0 0 2.11 2.28c1.17.2 2.4-.54 2.76-1.67.22-.66.1-1.37.13-2.05 0-1.33.02-2.66-.01-4A2.47 2.47 0 0 0 8.5 1.08c-.3-.1-.67-.07-.99-.03z"/><path d="M2.77 8.05a.5.5 0 0 1 .64.16c.1.15.09.34.1.51a4.45 4.45 0 0 0 2.7 3.91 4.5 4.5 0 0 0 6.28-3.85c.01-.19-.02-.4.1-.57a.5.5 0 0 1 .64-.16c.13.07.21.2.27.34v.37c-.03.28-.06.57-.11.85a5.48 5.48 0 0 1-4.03 4.22c-.28.08-.57.1-.85.15-.02.35 0 .7 0 1.01.13.02.26.01.4.01h2c.13 0 .28.01.4.1a.5.5 0 0 1 .14.63.66.66 0 0 1-.34.27H4.9a.66.66 0 0 1-.34-.27.5.5 0 0 1 .15-.63c.1-.09.25-.1.4-.1h2.4a17 17 0 0 0-.01-1.02l-.41-.06A5.47 5.47 0 0 1 2.5 8.79v-.4a.66.66 0 0 1 .27-.34zM8.5.96V2h-1V.96zM6.5 2h1v1h-1zm2 0h1v1h-1zm-3 1h1v1h-1c-.02-.01 0-1 0-1Zm2 0h1v1h-1V3zm2 0h1.01l-.01 1h-1Zm-3 1h1v1h-1zm2 0h1v1h-1V4zM5.42 5H6.5v1h-1ZM7.5 5h1v1h-1V5zm2 0h1l.1 1H9.5Zm-3 1h1v1h-1V6zm2 0h1v1h-1V6z"/><path d="M5.4 7h1.1v1H5.4Zm2.1 0h1v1h-1V7zm2 0h1.1l-.1 1h-1Zm-3 1h1v1h-1V8zm2 0h1v1h-1V8zM5.46 9H6.5v1h-.8zM7.5 9h1v1h-1V9zm2 0h1.06l-.37 1H9.5Zm-3 1h1v1.04l-1-.45zm2 0h1v.74l-1 .32Z"/></g></g><g transform="translate(2150)"><path fill="#F78422" d="M0 0h14v14H0z"/><g fill="#fff"><path d="M2 2v2c4 0 8 3 8 8h2A10 10 0 0 0 2 2Z"/><path d="M2 5.3v2c2.6 0 4.7 2 4.7 4.7h2A6.7 6.7 0 0 0 2 5.3z"/><path d="M4.8 10.6a1.4 1.4 0 0 1-1.4 1.5A1.4 1.4 0 0 1 2 10.6a1.4 1.4 0 0 1 1.4-1.4 1.4 1.4 0 0 1 1.4 1.4z"/></g></g></svg>